<svg width="24" height="24" viewBox="0 0 24 24" fill="none" xmlns="http://www.w3.org/2000/svg">
<g clip-path="url(#clip0_304_78)">
<path fill-rule="evenodd" clip-rule="evenodd" d="M12.0059 1C8.69686 1 6.00586 3.691 6.00586 7C6.00586 10.309 8.69686 13 12.0059 13C15.3149 13 18.0059 10.309 18.0059 7C18.0059 3.691 15.3149 1 12.0059 1ZM12.0059 14C8.14686 14 5.00586 10.86 5.00586 7C5.00586 3.14 8.14686 0 12.0059 0C15.8649 0 19.0059 3.14 19.0059 7C19.0059 10.86 15.8649 14 12.0059 14Z" fill="black"/>
<mask id="mask0_304_78" style="mask-type:alpha" maskUnits="userSpaceOnUse" x="0" y="13" width="24" height="11">
<path fill-rule="evenodd" clip-rule="evenodd" d="M0.000244141 13.0003H23.9881V24H0.000244141V13.0003Z" fill="white"/>
</mask>
<g mask="url(#mask0_304_78)">
<path fill-rule="evenodd" clip-rule="evenodd" d="M22.9542 24H1.05621C0.85021 24 0.66421 23.873 0.59021 23.681L0.47821 23.393C0.46621 23.373 -2.03879 17.181 4.54021 13.076C4.77321 12.932 5.08221 13 5.22821 13.235C5.37521 13.47 5.30421 13.778 5.06921 13.924C-0.59079 17.456 1.27221 22.669 1.39721 23H22.6192C22.8592 22.349 24.4642 17.371 18.9492 13.924C18.7152 13.778 18.6432 13.469 18.7902 13.235C18.9372 13 19.2472 12.931 19.4782 13.076C25.8412 17.052 23.6402 23.127 23.5432 23.383L23.4162 23.691C23.3392 23.878 23.1562 24 22.9542 24Z" fill="black"/>
</g>
</g>
<defs>
<clipPath id="clip0_304_78">
<rect width="24" height="24" fill="white"/>
</clipPath>
</defs>
</svg>
