<svg width="24" height="24" viewBox="0 0 24 24" fill="none" xmlns="http://www.w3.org/2000/svg">
<g clip-path="url(#clip0_306_188)">
<path fill-rule="evenodd" clip-rule="evenodd" d="M16.5 0H21.5C22.878 0 24 1.122 24 2.5V21.5C24 22.878 22.878 24 21.5 24H16.5C16.224 24 16 23.776 16 23.5C16 23.224 16.224 23 16.5 23H21.5C22.327 23 23 22.327 23 21.5V2.5C23 1.673 22.327 1 21.5 1H16.5C16.224 1 16 0.776 16 0.5C16 0.224 16.224 0 16.5 0ZM1 11.5C1 13.981 3.019 16 5.5 16C7.981 16 10 13.981 10 11.5C10 9.019 7.981 7 5.5 7C3.019 7 1 9.019 1 11.5ZM17 14.5V12H10.975C10.721 14.799 8.364 17 5.5 17C2.467 17 0 14.533 0 11.5C0 8.467 2.467 6 5.5 6C8.364 6 10.721 8.201 10.975 11H19.5C19.776 11 20 11.224 20 11.5C20 11.776 19.776 12 19.5 12H18V14.5C18 14.776 17.776 15 17.5 15C17.224 15 17 14.776 17 14.5Z" fill="#12100B"/>
</g>
<defs>
<clipPath id="clip0_306_188">
<rect width="24" height="24" fill="white"/>
</clipPath>
</defs>
</svg>
