<svg width="24" height="24" viewBox="0 0 24 24" fill="none" xmlns="http://www.w3.org/2000/svg">
<path fill-rule="evenodd" clip-rule="evenodd" d="M5 18L1.70711 21.2929C1.31658 21.6834 0.683418 21.6834 0.292893 21.2929C0.105357 21.1054 0 20.851 0 20.5858V6C0 3.79086 1.79086 2 4 2H20C22.2091 2 24 3.79086 24 6V14C24 16.2091 22.2091 18 20 18H5ZM1 20.5858L4.58579 17H20C21.6569 17 23 15.6569 23 14V6C23 4.34315 21.6569 3 20 3H4C2.34315 3 1 4.34315 1 6V20.5858ZM6.5 12C7.32843 12 8 11.3284 8 10.5C8 9.67157 7.32843 9 6.5 9C5.67157 9 5 9.67157 5 10.5C5 11.3284 5.67157 12 6.5 12ZM18 10.5C18 11.3284 17.3284 12 16.5 12C15.6716 12 15 11.3284 15 10.5C15 9.67157 15.6716 9 16.5 9C17.3284 9 18 9.67157 18 10.5ZM11.5 12C12.3284 12 13 11.3284 13 10.5C13 9.67157 12.3284 9 11.5 9C10.6716 9 10 9.67157 10 10.5C10 11.3284 10.6716 12 11.5 12Z" fill="black"/>
</svg>
