<?xml version="1.0" encoding="utf-8"?>
<!-- Generator: Adobe Illustrator 26.0.2, SVG Export Plug-In . SVG Version: 6.00 Build 0)  -->
<svg version="1.1" id="Layer_1" xmlns="http://www.w3.org/2000/svg" xmlns:xlink="http://www.w3.org/1999/xlink" x="0px" y="0px"
	 viewBox="0 0 81 81" style="enable-background:new 0 0 81 81;" xml:space="preserve">
<style type="text/css">
	.st0{fill:none;stroke:#000000;stroke-width:1.2;stroke-linecap:round;stroke-linejoin:round;stroke-miterlimit:10;}
	.st1{fill:none;stroke:#000000;stroke-width:1.2;stroke-miterlimit:10;}
	.st2{fill:none;stroke:#000000;stroke-width:1.2;stroke-linecap:round;stroke-linejoin:round;stroke-miterlimit:10.0002;}
	.st3{fill:none;stroke:#000000;stroke-width:1.2001;stroke-linecap:round;stroke-linejoin:round;stroke-miterlimit:10.0004;}
</style>
<g>
	<path d="M67.62,25.34h-6.64c0.01-0.29,0.02-0.59,0.02-0.9c0-4.29-0.92-6.69-1.73-8.82l-0.22-0.57c-0.69-1.83-2.7-2.79-4.56-2.18
		c-6.84,2.24-9.57,5.74-10.49,7.32c-0.74-0.82-1.81-1.33-2.99-1.33h-1c-1.19,0-2.25,0.52-2.99,1.33c-0.92-1.57-3.64-5.07-10.49-7.31
		c-1.87-0.61-3.87,0.34-4.56,2.18l-0.22,0.57c-0.81,2.12-1.73,4.53-1.73,8.82c0,0.31,0.01,0.61,0.02,0.9h-6.64
		c-0.38,0-0.7,0.31-0.7,0.7l0,13.77c0,0.38,0.31,0.7,0.7,0.7h1.67v27.12c0,0.38,0.31,0.7,0.7,0.7h49.49c0.38,0,0.7-0.31,0.7-0.7
		l0-27.12h1.67c0.38,0,0.7-0.31,0.7-0.7V26.03C68.31,25.65,68,25.34,67.62,25.34z M44.82,21.59c0.02-0.04,0.05-0.06,0.07-0.1l0,0
		c0.02-0.05,1.86-4.61,10.03-7.29c1.16-0.38,2.4,0.21,2.83,1.35l0.22,0.58c0.81,2.11,1.64,4.29,1.64,8.32c0,4.02-0.83,6.2-1.64,8.31
		l-0.22,0.58c-0.43,1.13-1.67,1.73-2.83,1.35c-8.15-2.67-10-7.23-10.02-7.29c-0.02-0.04-0.04-0.07-0.07-0.1
		c0.14-0.41,0.22-0.85,0.22-1.31V22.9C45.04,22.44,44.96,22,44.82,21.59z M37.35,22.9c0-1.46,1.19-2.65,2.65-2.65h1
		c1.46,0,2.65,1.19,2.65,2.65v3.09c0,1.46-1.19,2.65-2.65,2.65h-1c-1.46,0-2.65-1.19-2.65-2.65V22.9z M23.04,16.12L23.04,16.12
		l0.22-0.58c0.43-1.13,1.66-1.73,2.83-1.35c8.17,2.68,10.01,7.25,10.03,7.29c0.02,0.04,0.04,0.07,0.07,0.11
		c-0.14,0.41-0.22,0.85-0.22,1.31v3.09c0,0.46,0.08,0.9,0.22,1.31c-0.02,0.03-0.05,0.06-0.07,0.1c-0.02,0.05-1.86,4.61-10.03,7.29
		c-1.16,0.38-2.4-0.21-2.83-1.35l-0.22-0.58c-0.81-2.11-1.64-4.29-1.64-8.32C21.4,20.41,22.23,18.23,23.04,16.12z M66.92,39.11H43.7
		v1.39h20.85v26.42h-48.1V40.5H37.3v-1.39H14.08V26.73h6.03c0.26,2.92,0.98,4.81,1.64,6.53l0.22,0.57c0.55,1.46,1.93,2.36,3.41,2.36
		c0.38,0,0.77-0.06,1.15-0.18c6.84-2.24,9.57-5.74,10.49-7.31c0.74,0.82,1.81,1.33,2.99,1.33l1,0c1.19,0,2.25-0.52,2.99-1.33
		c0.92,1.57,3.64,5.07,10.49,7.31c0.38,0.13,0.77,0.18,1.15,0.18c1.48,0,2.86-0.9,3.41-2.36l0.22-0.58
		c0.65-1.71,1.38-3.61,1.64-6.52h6.03L66.92,39.11z"/>
	<line class="st1" x1="37.3" y1="67.7" x2="37.3" y2="28.5"/>
	<line class="st1" x1="43.7" y1="28.5" x2="43.7" y2="67.7"/>
</g>
</svg>
