<?xml version="1.0" encoding="utf-8"?>
<!-- Generator: Adobe Illustrator 26.0.2, SVG Export Plug-In . SVG Version: 6.00 Build 0)  -->
<svg version="1.1" id="Layer_1" xmlns="http://www.w3.org/2000/svg" xmlns:xlink="http://www.w3.org/1999/xlink" x="0px" y="0px"
	 viewBox="0 0 81 81" style="enable-background:new 0 0 81 81;" xml:space="preserve">
<style type="text/css">
	.st0{fill:none;stroke:#000000;stroke-width:1.2;stroke-linecap:round;stroke-linejoin:round;stroke-miterlimit:10;}
	.st1{fill:none;stroke:#000000;stroke-width:1.2;stroke-miterlimit:10;}
	.st2{fill:none;stroke:#000000;stroke-width:1.2;stroke-linecap:round;stroke-linejoin:round;stroke-miterlimit:10.0002;}
	.st3{fill:none;stroke:#000000;stroke-width:1.2001;stroke-linecap:round;stroke-linejoin:round;stroke-miterlimit:10.0004;}
</style>
<g>
	<path d="M11.46,33.52H8.96v6.88h2.39c0,0,0.61-2.43,2.2-2.27c1.59,0.16,2.93,0.84,4.92,0.6c0,0-5.85,3.3-5.85,8.96h8.4
		c0,0-0.6-7.96,4.1-12.77l-1.79-1.51c0,0-1.79,1.71-5.65,0.24c0,0-3.03-1.04-6.21,0.67L11.46,33.52z"/>
	<rect x="5.3" y="14.9" class="st0" width="23.47" height="51.2"/>
	<path d="M34.93,33.52h-2.51v6.88h2.39c0,0,0.61-2.43,2.2-2.27c1.59,0.16,2.93,0.84,4.92,0.6c0,0-5.85,3.3-5.85,8.96h8.4
		c0,0-0.6-7.96,4.1-12.77l-1.79-1.51c0,0-1.79,1.71-5.65,0.24c0,0-3.03-1.04-6.21,0.67L34.93,33.52z"/>
	<rect x="28.77" y="14.9" class="st0" width="23.47" height="51.2"/>
	<path d="M58.4,33.52h-2.51v6.88h2.39c0,0,0.61-2.43,2.2-2.27c1.59,0.16,2.93,0.84,4.92,0.6c0,0-5.85,3.3-5.85,8.96h8.4
		c0,0-0.6-7.96,4.1-12.77l-1.79-1.51c0,0-1.79,1.71-5.65,0.24c0,0-3.03-1.04-6.21,0.67L58.4,33.52z"/>
	<rect x="52.23" y="14.9" class="st0" width="23.47" height="51.2"/>
</g>
</svg>
