<?xml version="1.0" encoding="UTF-8"?>
<!DOCTYPE svg PUBLIC "-//W3C//DTD SVG 1.1//EN" "http://www.w3.org/Graphics/SVG/1.1/DTD/svg11.dtd">
<!-- Creator: CorelDRAW 2018 (64-Bit) -->
<svg xmlns="http://www.w3.org/2000/svg" xml:space="preserve" width="197.586mm" height="75mm" version="1.1" style="shape-rendering:geometricPrecision; text-rendering:geometricPrecision; image-rendering:optimizeQuality; fill-rule:evenodd; clip-rule:evenodd"
viewBox="0 0 19758.6 7500"
 xmlns:xlink="http://www.w3.org/1999/xlink">
 <defs>
  <style type="text/css">
   <![CDATA[
    .fil0 {fill:black;fill-rule:nonzero}
   ]]>
  </style>
 </defs>
 <g id="Layer_x0020_1">
  <metadata id="CorelCorpID_0Corel-Layer"/>
  <path class="fil0" d="M1255.58 2090l487.09 0c69.7,0 136.27,5.57 199.64,16.68 64.05,11.23 124.58,28.12 181.5,50.64 56.25,22.25 108.96,49.3 158.06,81.09 48.85,31.63 93.29,67.67 133.22,108.03l0.14 0.15 0.15 -0.15c39.67,40.11 75.06,84.87 106.03,134.17 30.66,48.78 56.43,101.29 77.23,157.4 20.62,55.62 36.15,114.23 46.54,175.75 10.33,61.17 15.52,124.38 15.52,189.58 0,65.23 -5.18,128.46 -15.51,189.64 -10.45,61.86 -25.98,120.54 -46.55,175.99 -20.65,55.7 -46.43,108.09 -77.25,157.16 -30.63,48.74 -66.08,93.46 -106.3,134.11 -39.95,40.38 -84.37,76.41 -133.21,108.03 -49.1,31.79 -101.81,58.84 -158.07,81.09 -56.92,22.51 -117.47,39.4 -181.51,50.64 -63.41,11.12 -129.98,16.69 -199.63,16.69l-487.09 0c-41.42,0 -75,-33.58 -75,-75l0 -1676.69c0,-41.42 33.58,-75 75,-75zm425.28 4365.03l0 -1458.85 -400.37 0c-41.42,0 -75,-33.58 -75,-75l0 -142.84c0,-41.42 33.58,-75 75,-75l1100.62 0c41.42,0 75,33.58 75,75l0 142.84c0,41.42 -33.58,75 -75,75l-400.38 0 0 1458.85c0,41.42 -33.58,75 -75,75l-149.87 0c-41.42,0 -75,-33.58 -75,-75zm1615.86 -1458.85l0 475.25 646.26 0c41.42,0 75,33.58 75,75l0 140.51c0,41.42 -33.58,75 -75,75l-646.26 0 0 475.24 721.19 0c41.42,0 75,33.58 75,75l0 142.85c0,41.42 -33.58,75 -75,75l-946.07 0c-41.42,0 -75,-33.58 -75,-75l0 -1676.69c0,-41.42 33.58,-75 75,-75l946.07 0c41.42,0 75,33.58 75,75l0 142.84c0,41.42 -33.58,75 -75,75l-721.19 0zm2921.52 1239.64c-40.15,48.52 -85.55,93.04 -136.13,133.49 -50.17,40.14 -104.34,75.28 -162.46,105.38 -59.66,30.9 -124.39,54.14 -194.1,69.68 -69.15,15.41 -141.96,23.13 -218.37,23.13 -66.32,0 -130.44,-6.15 -192.3,-18.44 -61.55,-12.22 -121.3,-30.87 -179.18,-55.92 -57.3,-24.79 -110.31,-53.89 -158.95,-87.22 -49.33,-33.81 -94.93,-72.28 -136.72,-115.35 -41.62,-42.89 -78.82,-89.66 -111.54,-140.24 -32.38,-50.05 -60.5,-104.22 -84.3,-162.45 -24,-58.71 -41.87,-118.75 -53.58,-180.05 -11.9,-62.27 -17.85,-126.01 -17.85,-191.15 0,-65.14 5.95,-128.88 17.85,-191.15 11.71,-61.3 29.59,-121.34 53.58,-180.04 23.8,-58.23 51.92,-112.4 84.3,-162.45 32.72,-50.58 69.92,-97.35 111.54,-140.24 41.79,-43.07 87.4,-81.55 136.74,-115.36 48.63,-33.33 101.64,-62.42 158.93,-87.21 57.88,-25.05 117.63,-43.7 179.18,-55.92 61.86,-12.29 125.98,-18.44 192.3,-18.44 69.29,0 135.46,6.54 198.47,19.62l2.88 0.66c62.79,13.26 121.19,32.75 175.12,58.46 54.22,25.83 105.57,57.48 153.97,94.84 47.84,36.96 92.17,79.23 132.92,126.77 26.85,31.39 23.18,78.62 -8.21,105.47l-104.79 100.11c-29.77,28.47 -77,27.42 -105.47,-2.35l-3.71 -4.18 -0.09 0.08c-56.9,-69.4 -121.8,-121.22 -194.64,-155.41 -72.74,-34.14 -154.89,-51.22 -246.45,-51.22 -43.76,0 -86.01,4.01 -126.72,12.01 -40.84,8.02 -80.39,20.04 -118.55,35.99 -37.95,15.87 -73.87,35.09 -107.71,57.65 -33.34,22.23 -64.28,47.61 -92.78,76.11 -28.8,28.8 -54.39,60.14 -76.72,93.98l-2.56 3.62c-21.4,32.99 -40.35,69.25 -56.82,108.74 -16.79,40.25 -29.39,82.64 -37.75,127.07 -8.39,44.57 -12.6,92.18 -12.6,142.79 0,50.62 4.21,98.23 12.6,142.8 8.36,44.43 20.96,86.82 37.75,127.07 17.14,41.11 36.96,78.78 59.39,112.94l0.09 0.14 0.21 -0.14c22.85,34.81 48.44,66.55 76.7,95.16 27.86,28.2 58.71,53.58 92.49,76.1 34.28,22.85 70,41.89 107.13,57.07 37.7,15.42 77.34,27.14 118.83,35.12 40.59,7.8 82.95,11.71 127.02,11.71 53.6,0 103.18,-5.18 148.66,-15.52 44.91,-10.2 86.79,-25.53 125.59,-45.94 40.29,-21.2 78.07,-46.28 113.27,-75.21 35.86,-29.48 69.45,-63.06 100.69,-100.7 26.37,-31.71 73.46,-36.04 105.17,-9.67 2.27,1.89 4.39,3.88 6.38,5.96l105.15 100.59c28.47,27.22 30.67,71.6 5.91,101.46l0.24 0.2zm665.68 -1531.97l150.01 0.01c41.26,0 74.71,33.45 74.71,74.71l0.29 0 0 674.13 786.7 0 0 -674.36c0,-41.42 33.58,-75 75,-75l149.87 0c41.42,0 75,33.58 75,75l0 1676.69c0,41.42 -33.58,75 -75,75l-149.87 0c-41.42,0 -75,-33.58 -75,-75l0 -711.83 -786.7 0 0 1681.8c0,41.42 -33.58,75 -75,75l-6958.93 0c-41.42,0 -75,-33.58 -75,-75l0 -7350c0,-41.42 33.58,-75 75,-75l6958.93 0c41.42,0 75,33.58 75,75l0 3766.69c0,41.42 -33.58,75 -75,75l-150 0c-41.42,0 -75,-33.58 -75,-75l0 -3541.69 -6508.93 0 0 6900 6508.93 0 0 -744.97 0.29 0 -0.01 -1676.47c0,-41.26 33.45,-74.71 74.71,-74.71zm2049.08 -0.51l194.37 0c28.2,0 52.76,15.57 65.57,38.58l772.69 1199.75 -2.06 -72.08 -0.26 0 0 -1091.25c0,-41.42 33.58,-75 75,-75l149.87 0c41.42,0 75,33.58 75,75l0 1676.69c0,41.42 -33.58,75 -75,75l-154.55 0c-28.21,0 -52.78,-15.58 -65.59,-38.61l-812.47 -1262.74 2.05 71.87 0.26 0 0 1154.48c0,41.42 -33.58,75 -75,75l-149.88 0c-41.42,0 -75,-33.58 -75,-75l0 -1676.69c0,-41.42 33.58,-75 75,-75zm2812.37 1864.16c-65.61,0 -129.83,-6.35 -192.63,-19.03 -62.98,-12.72 -122.82,-31.57 -179.45,-56.5 -56.81,-25.01 -109.7,-54.59 -158.64,-88.69 -48.95,-34.12 -94.26,-73.08 -135.85,-116.81 -40.87,-42.98 -77.58,-89.94 -110.07,-140.8 -32.31,-50.61 -60.04,-104.49 -83.13,-161.6 -23.28,-57.55 -40.76,-117.1 -52.41,-178.58 -11.7,-61.72 -17.56,-124.67 -17.56,-188.81 0,-64.14 5.86,-127.09 17.56,-188.81 11.66,-61.47 29.15,-121.02 52.41,-178.57 23.1,-57.12 50.82,-111 83.13,-161.6 32.47,-50.85 69.18,-97.81 110.07,-140.8 41.6,-43.74 86.92,-82.71 135.86,-116.82 48.94,-34.11 101.83,-63.68 158.63,-88.68 56.63,-24.92 116.49,-43.77 179.49,-56.5 62.78,-12.68 126.99,-19.03 192.59,-19.03 65.07,0 128.8,6.35 191.15,19.03 62.27,12.67 121.81,31.52 178.58,56.5 56.25,24.76 109.16,54.35 158.66,88.7 49.56,34.39 95.16,73.25 136.72,116.5 41.72,43.43 78.81,90.39 111.24,140.83 32.26,50.19 60.09,104.16 83.42,161.87 23.28,57.55 40.76,117.1 52.41,178.57 11.7,61.72 17.56,124.67 17.56,188.81 0,64.14 -5.86,127.09 -17.56,188.81 -11.65,61.48 -29.13,121.03 -52.41,178.58 -23.33,57.71 -51.16,111.69 -83.42,161.89 -32.41,50.42 -69.51,97.38 -111.24,140.81 -41.57,43.26 -87.17,82.12 -136.73,116.51 -49.51,34.35 -102.42,63.94 -158.65,88.69 -56.77,24.98 -116.32,43.83 -178.61,56.5 -62.34,12.68 -126.06,19.03 -191.12,19.03zm0 -292.85c42.93,0 84.59,-4.01 124.95,-12.01 40.43,-8.01 79.78,-20.03 117.98,-35.99 38.06,-15.91 73.78,-35.14 107.11,-57.64 33.36,-22.53 63.92,-48.02 91.63,-76.41 28.32,-29.02 53.7,-60.74 76.1,-95.14 22.52,-34.56 42.34,-72.34 59.41,-113.26 16.8,-40.29 29.41,-82.47 37.75,-126.46 8.38,-44.23 12.59,-91.26 12.59,-141.06 0,-49.81 -4.2,-96.84 -12.59,-141.08 -8.33,-43.98 -20.93,-86.15 -37.75,-126.44 -17.08,-40.93 -36.9,-78.7 -59.42,-113.27 -22.4,-34.39 -47.78,-66.11 -76.09,-95.12 -27.71,-28.39 -58.26,-53.87 -91.62,-76.39 -33.33,-22.52 -69.05,-41.74 -107.12,-57.66 -38.2,-15.97 -77.55,-27.99 -117.97,-35.99 -40.36,-8 -82.02,-12.01 -124.96,-12.01 -43.74,0 -85.89,4.01 -126.41,12.01 -41.07,8.1 -80.23,20.02 -117.41,35.7 -37.34,15.74 -72.96,35.07 -106.8,57.92 -33.51,22.63 -64.37,48.22 -92.51,76.71 -28.59,28.93 -54.08,60.58 -76.41,94.86 -22.84,35.04 -42.44,72.59 -58.78,112.56l0.25 0.1c-16.62,40.72 -29.03,82.99 -37.16,126.78 -8.19,44.11 -12.3,91.23 -12.3,141.32 0,50.09 4.11,97.22 12.3,141.33 8.29,44.63 20.6,86.92 36.87,126.77 16.35,40.01 35.97,77.6 58.82,112.67 22.33,34.28 47.82,65.93 76.41,94.86 28.14,28.48 58.98,54.06 92.5,76.7 33.84,22.85 69.47,42.18 106.81,57.93 37.18,15.68 76.34,27.6 117.41,35.7 40.52,8 82.67,12.01 126.41,12.01zm1578.26 -1571.31l149.88 0c41.42,0 75,33.58 75,75l0 1458.84 683.72 0c41.42,0 75,33.58 75,75l0 142.85c0,41.42 -33.58,75 -75,75l-908.6 0c-41.42,0 -75,-33.58 -75,-75l0 -1676.69c0,-41.42 33.58,-75 75,-75zm2334.65 1864.16c-65.61,0 -129.83,-6.35 -192.63,-19.03 -62.98,-12.72 -122.82,-31.57 -179.45,-56.5 -56.81,-25.01 -109.7,-54.59 -158.64,-88.69 -48.95,-34.12 -94.26,-73.08 -135.85,-116.81 -40.87,-42.98 -77.58,-89.94 -110.07,-140.8 -32.31,-50.61 -60.04,-104.49 -83.13,-161.6 -23.28,-57.55 -40.76,-117.1 -52.41,-178.58 -11.7,-61.72 -17.56,-124.67 -17.56,-188.81 0,-64.14 5.86,-127.09 17.56,-188.81 11.66,-61.47 29.15,-121.02 52.41,-178.57 23.1,-57.12 50.82,-111 83.13,-161.6 32.47,-50.85 69.18,-97.81 110.07,-140.8 41.6,-43.74 86.92,-82.71 135.86,-116.82 48.94,-34.11 101.83,-63.68 158.63,-88.68 56.63,-24.92 116.49,-43.77 179.49,-56.5 62.78,-12.68 126.99,-19.03 192.59,-19.03 65.07,0 128.8,6.35 191.15,19.03 62.27,12.67 121.81,31.52 178.58,56.5 56.25,24.76 109.16,54.35 158.66,88.7 49.56,34.39 95.16,73.25 136.72,116.5 41.72,43.43 78.81,90.39 111.24,140.83 32.26,50.19 60.09,104.16 83.42,161.87 23.28,57.55 40.76,117.1 52.41,178.57 11.7,61.72 17.56,124.67 17.56,188.81 0,64.14 -5.86,127.09 -17.56,188.81 -11.65,61.48 -29.13,121.03 -52.41,178.58 -23.33,57.71 -51.16,111.69 -83.42,161.89 -32.41,50.42 -69.51,97.38 -111.24,140.81 -41.57,43.26 -87.17,82.12 -136.73,116.51 -49.51,34.35 -102.42,63.94 -158.65,88.69 -56.77,24.98 -116.32,43.83 -178.61,56.5 -62.34,12.68 -126.06,19.03 -191.12,19.03zm0 -292.85c42.93,0 84.59,-4.01 124.95,-12.01 40.43,-8.01 79.78,-20.03 117.98,-35.99 38.06,-15.91 73.78,-35.14 107.11,-57.64 33.36,-22.53 63.92,-48.02 91.63,-76.41 28.32,-29.02 53.7,-60.74 76.1,-95.14 22.52,-34.56 42.34,-72.34 59.41,-113.26 16.8,-40.29 29.41,-82.47 37.75,-126.46 8.38,-44.23 12.59,-91.26 12.59,-141.06 0,-49.81 -4.2,-96.84 -12.59,-141.08 -8.33,-43.98 -20.93,-86.15 -37.75,-126.44 -17.08,-40.93 -36.9,-78.7 -59.42,-113.27 -22.4,-34.39 -47.78,-66.11 -76.09,-95.12 -27.71,-28.39 -58.26,-53.87 -91.62,-76.39 -33.33,-22.52 -69.05,-41.74 -107.12,-57.66 -38.2,-15.97 -77.55,-27.99 -117.97,-35.99 -40.36,-8 -82.02,-12.01 -124.96,-12.01 -43.74,0 -85.89,4.01 -126.41,12.01 -41.07,8.1 -80.23,20.02 -117.41,35.7 -37.34,15.74 -72.96,35.07 -106.8,57.92 -33.51,22.63 -64.37,48.22 -92.51,76.71 -28.59,28.93 -54.08,60.58 -76.41,94.86 -22.84,35.04 -42.44,72.59 -58.78,112.56l0.25 0.1c-16.62,40.72 -29.03,82.99 -37.16,126.78 -8.19,44.11 -12.3,91.23 -12.3,141.32 0,50.09 4.11,97.22 12.3,141.33 8.29,44.63 20.6,86.92 36.87,126.77 16.35,40.01 35.97,77.6 58.82,112.67 22.33,34.28 47.82,65.93 76.41,94.86 28.14,28.48 58.98,54.06 92.5,76.7 33.84,22.85 69.47,42.18 106.81,57.93 37.18,15.68 76.34,27.6 117.41,35.7 40.52,8 82.67,12.01 126.41,12.01zm2346.36 -772.78l789.17 0c39.03,0 71.09,29.82 74.66,67.92 1.09,7.01 2.29,15.53 3.57,25.52 1.78,13.99 2.99,24.35 3.5,30.44 0.59,6.97 1.18,17.12 1.75,30.69 0.58,13.55 0.88,23.8 0.88,30.5 0,107.52 -16.89,213.22 -50.64,317.03 -17.25,53.06 -40.06,103.95 -68.58,152.44 -28.16,47.88 -61.46,92.68 -100.04,134.16 -40.22,43.25 -84.81,81.88 -133.53,116.01 -48.95,34.28 -101.41,63.48 -157.16,87.73 -56.48,24.57 -116.32,42.93 -179.45,55.04 -63.01,12.1 -129.1,18.15 -198.18,18.15 -64.75,0 -127.71,-6.05 -188.83,-18.15 -61.07,-12.08 -120.32,-30.34 -177.69,-54.74 -56.98,-24.23 -110.18,-53.03 -159.53,-86.36 -49.37,-33.34 -95.46,-71.61 -138.18,-114.76 -42.41,-42.83 -80.38,-89.4 -113.88,-139.64l-0.22 -0.34c-33.35,-49.88 -62.25,-103.55 -86.72,-160.95 -24.8,-58.17 -43.35,-118.59 -55.62,-181.2 -12.29,-62.71 -18.44,-127.63 -18.44,-194.68 0,-66.27 6.15,-130.69 18.44,-193.21 12.19,-61.99 30.74,-122.4 55.62,-181.19 24.64,-58.23 53.55,-112.3 86.65,-162.18 33.46,-50.39 71.53,-97.15 114.17,-140.22 42.72,-43.15 88.81,-81.43 138.21,-114.78 49.35,-33.33 102.54,-62.12 159.5,-86.34 57.38,-24.4 116.65,-42.65 177.73,-54.74 61.1,-12.09 124.04,-18.15 188.79,-18.15 65.62,0 129.75,5.86 192.3,17.56 62.21,11.64 122.16,29.12 179.76,52.41 58.72,23.73 112.31,52.44 160.7,86.05 48.57,33.73 92.6,72.98 132.05,117.69 26.32,29.75 24.62,74.64 -3.13,102.34l0.2 0.2 -110.06 110.07c-29.28,29.28 -76.78,29.28 -106.06,0 -3.22,-3.22 -6.09,-6.67 -8.6,-10.28 -23.94,-28.4 -50.66,-53.58 -80.1,-75.5 -31.11,-23.16 -65.46,-42.78 -103.01,-58.81 -37.83,-16.15 -77.77,-28.36 -119.74,-36.58 -41.85,-8.19 -85.86,-12.3 -131.97,-12.3 -42.45,0 -83.73,3.91 -123.8,11.71 -40.02,7.8 -79.56,19.61 -118.54,35.41 -39.33,15.94 -75.84,34.89 -109.48,56.79 -33.81,22.02 -65.44,47.4 -94.83,76.09 -29.39,28.69 -55.67,60.04 -78.73,93.96 -23.35,34.33 -43.96,72.02 -61.76,112.97 -17.19,39.57 -30.19,81.85 -38.92,126.76 -8.78,45.13 -13.18,93.23 -13.18,144.27 0,50.76 4.5,98.77 13.47,144.01 8.86,44.62 22.14,86.89 39.8,126.73 18.07,40.75 38.96,78.42 62.65,112.98 23.6,34.44 49.96,65.88 79.02,94.25 29.04,28.35 60.67,53.73 94.84,76.09 34.68,22.71 70.79,41.74 108.29,57.08 37.59,15.37 76.93,27.09 117.96,35.12 39.89,7.8 80.98,11.71 123.21,11.71 56.23,0 107.56,-4.59 153.96,-13.76 45.14,-8.92 85.65,-22.1 121.46,-39.5 37.64,-18.28 71.41,-38.51 101.27,-60.6 29.39,-21.74 55.16,-45.38 77.27,-70.83 22.57,-25.99 42.01,-53.05 58.26,-81.1 15.74,-27.16 28.52,-55.67 38.32,-85.43 10.26,-31.18 18.27,-63.8 24,-97.8 1.84,-10.95 3.47,-22.03 4.88,-33.25l-567.71 0c-41.42,0 -75,-33.58 -75,-75l0 -140.51c0,-41.42 33.58,-75 75,-75zm1529.08 -798.53l149.88 0c41.42,0 75,33.58 75,75l0 1676.69c0,41.42 -33.58,75 -75,75l-149.88 0c-41.42,0 -75,-33.58 -75,-75l0 -1676.69c0,-41.42 33.58,-75 75,-75zm-17791.05 -1079.5c48.99,0 94.84,-3.53 137.48,-10.54 42.42,-6.98 82.86,-17.53 121.26,-31.6 37.68,-13.81 72.53,-30.7 104.43,-50.59 31.79,-19.83 60.72,-42.61 86.69,-68.24 26.2,-25.86 49.37,-54.5 69.41,-85.82 20.1,-31.42 37.58,-66.56 52.35,-105.31 14.69,-38.53 25.73,-79.85 33.07,-123.9 7.4,-44.46 11.13,-92.65 11.13,-144.5 0,-51.09 -3.71,-98.8 -11.13,-143.12 -7.39,-44.2 -18.43,-85.69 -33.07,-124.4 -14.68,-38.81 -32.17,-74.15 -52.39,-105.93 -20.07,-31.55 -43.22,-60.26 -69.37,-86.07 -25.96,-25.62 -54.87,-48.38 -86.65,-68.2 -31.91,-19.89 -66.76,-36.8 -104.47,-50.63 -38.39,-14.09 -78.82,-24.63 -121.19,-31.6 -42.7,-7.02 -88.58,-10.55 -137.55,-10.55l-262.21 0 0 1241 262.21 0zm1673.2 -1533.84l149.88 0c41.42,0 75,33.58 75,75l0 1676.69c0,41.42 -33.58,75 -75,75l-149.88 0c-41.42,0 -75,-33.58 -75,-75l0 -1676.69c0,-41.42 33.58,-75 75,-75zm1834.79 798.53l789.17 0c39.01,0 71.07,29.79 74.66,67.87 1.1,7.02 2.29,15.53 3.58,25.59 1.76,13.73 2.97,24.12 3.49,30.42 0.58,7.03 1.17,17.03 1.74,30.73 0.59,13.39 0.89,23.62 0.89,30.46 0,107.52 -16.89,213.22 -50.64,317.03 -17.25,53.05 -40.06,103.94 -68.58,152.42 -28.17,47.9 -61.49,92.72 -100.04,134.18 -40.2,43.23 -84.81,81.88 -133.54,116.01 -48.95,34.27 -101.41,63.48 -157.15,87.73 -56.48,24.57 -116.32,42.93 -179.45,55.04 -63.02,12.1 -129.1,18.15 -198.18,18.15 -64.75,0 -127.71,-6.05 -188.83,-18.15 -61.07,-12.08 -120.32,-30.34 -177.69,-54.74 -56.98,-24.23 -110.18,-53.03 -159.53,-86.36 -49.37,-33.34 -95.46,-71.61 -138.18,-114.76 -42.41,-42.83 -80.38,-89.4 -113.88,-139.64l-0.22 -0.34c-33.35,-49.88 -62.25,-103.55 -86.72,-160.95 -24.81,-58.16 -43.35,-118.59 -55.62,-181.2 -12.29,-62.73 -18.44,-127.63 -18.44,-194.68 0,-66.29 6.15,-130.69 18.44,-193.21 12.18,-61.98 30.73,-122.4 55.62,-181.19 24.64,-58.23 53.55,-112.3 86.65,-162.18 33.46,-50.39 71.53,-97.15 114.17,-140.22 42.74,-43.16 88.84,-81.46 138.25,-114.82 49.35,-33.32 102.53,-62.11 159.46,-86.3 57.36,-24.37 116.65,-42.64 177.77,-54.74 61.08,-12.09 124.02,-18.15 188.75,-18.15 65.6,0 129.7,5.87 192.24,17.57 62.24,11.64 122.21,29.13 179.82,52.4 58.69,23.71 112.28,52.41 160.68,86.03 48.57,33.73 92.62,73 132.07,117.71 26.32,29.75 24.62,74.64 -3.13,102.34l0.2 0.2 -110.06 110.07c-29.28,29.28 -76.78,29.28 -106.06,0 -3.22,-3.22 -6.09,-6.67 -8.6,-10.28 -23.94,-28.4 -50.68,-53.59 -80.12,-75.52 -31.1,-23.16 -65.46,-42.78 -102.99,-58.79 -37.83,-16.14 -77.8,-28.35 -119.8,-36.58 -41.83,-8.18 -85.83,-12.3 -131.91,-12.3 -42.44,0 -83.73,3.91 -123.8,11.71 -40.02,7.8 -79.56,19.61 -118.54,35.41 -39.31,15.93 -75.82,34.88 -109.46,56.79 -33.83,22.03 -65.48,47.42 -94.85,76.09 -29.38,28.68 -55.65,60.03 -78.74,93.98 -23.35,34.33 -43.96,72.01 -61.75,112.95 -17.19,39.57 -30.19,81.85 -38.92,126.76 -8.78,45.13 -13.18,93.24 -13.18,144.27 0,50.75 4.5,98.77 13.47,144 8.85,44.64 22.13,86.89 39.8,126.74 18.06,40.74 38.96,78.42 62.64,112.98 23.61,34.44 49.96,65.87 79.03,94.25 29.04,28.35 60.67,53.73 94.84,76.09 34.68,22.71 70.8,41.75 108.29,57.08 37.59,15.37 76.93,27.09 117.96,35.12 39.9,7.8 80.98,11.71 123.21,11.71 56.23,0 107.56,-4.59 153.96,-13.76 45.15,-8.93 85.66,-22.11 121.46,-39.5 37.63,-18.28 71.4,-38.51 101.26,-60.6 29.41,-21.75 55.19,-45.39 77.28,-70.83 22.55,-25.98 42.02,-53.07 58.29,-81.16 15.88,-27.42 28.67,-55.82 38.29,-85.07 10.18,-30.97 18.2,-63.73 24,-98.2 1.84,-10.92 3.46,-21.97 4.87,-33.15l-567.7 0c-41.42,0 -75,-33.58 -75,-75l0 -140.51c0,-41.42 33.58,-75 75,-75zm2981.03 953.16l0 -1458.85 -400.37 0c-41.42,0 -75,-33.58 -75,-75l0 -142.84c0,-41.42 33.58,-75 75,-75l1100.62 0c41.42,0 75,33.58 75,75l0 142.84c0,41.42 -33.58,75 -75,75l-400.38 0 0 1458.85c0,41.42 -33.58,75 -75,75l-149.87 0c-41.42,0 -75,-33.58 -75,-75zm1841.88 -1751.69l173.29 0c34.06,0 62.82,22.71 71.96,53.82l646.43 1670.92c14.88,38.51 -4.27,81.8 -42.78,96.68 -8.87,3.43 -17.98,5.04 -26.95,5.04l0 0.23 -163.92 0c-34,0 -62.71,-22.63 -71.91,-53.65l-162.45 -431.09 -674.06 0 -164.33 436.11c-11.29,29.98 -39.77,48.46 -70.02,48.46l0 0.17 -163.93 0c-41.42,0 -75,-33.58 -75,-75 0,-11.75 2.7,-22.86 7.52,-32.76l646.42 -1670.88c11.45,-29.64 39.74,-47.81 69.73,-47.82l0 -0.23zm312.96 1051.44l-226.32 -595.51 -226.32 595.51 452.64 0zm1273.59 -1051.44l149.88 0c41.42,0 75,33.58 75,75l0 1458.84 683.72 0c41.42,0 75,33.58 75,75l0 142.85c0,41.42 -33.58,75 -75,75l-908.6 0c-41.42,0 -75,-33.58 -75,-75l0 -1676.69c0,-41.42 33.58,-75 75,-75z"/>
 </g>
</svg>
