<?xml version="1.0" encoding="UTF-8"?>
<!DOCTYPE svg PUBLIC "-//W3C//DTD SVG 1.1//EN" "http://www.w3.org/Graphics/SVG/1.1/DTD/svg11.dtd">
<!-- Creator: CorelDRAW -->
<svg xmlns="http://www.w3.org/2000/svg" xml:space="preserve" width="1.74596in" height="0.529189in" version="1.1" style="shape-rendering:geometricPrecision; text-rendering:geometricPrecision; image-rendering:optimizeQuality; fill-rule:evenodd; clip-rule:evenodd"
viewBox="0 0 232.85 70.57"
 xmlns:xlink="http://www.w3.org/1999/xlink"
 xmlns:xodm="http://www.corel.com/coreldraw/odm/2003">
 <defs>
  <style type="text/css">
   <![CDATA[
    .fil0 {fill:#A9ABAE;fill-rule:nonzero}
   ]]>
  </style>
 </defs>
 <g id="Layer_x0020_1">
  <metadata id="CorelCorpID_0Corel-Layer"/>
  <g id="_1819196331696">
   <path class="fil0" d="M17.86 43.73c-5.89,-2.19 -12.42,-7.05 -15.78,-14.93 -1.35,-3.18 -2.03,-6.58 -2.08,-10.16l0 -0.09c0.05,-2.96 0.51,-5.78 1.41,-8.43 0.91,-2.68 2.27,-5.2 4.11,-7.56l2 -2.56 20.13 14.97 20.03 -14.97 2.02 2.57c1.77,2.25 3.19,4.67 4.17,7.32 0.98,2.65 1.51,5.53 1.47,8.68 0.24,11.08 -5.35,18.9 -13.19,24.46 -7.23,5.12 -16.31,8.21 -24.26,10.13 0,0 -0,-6.87 -0,-6.87 6.93,-1.78 14.51,-4.49 20.43,-8.69 6.17,-4.37 10.57,-10.45 10.37,-18.92l0 -0.12c0.03,-2.31 -0.36,-4.42 -1.08,-6.38 -0.36,-0.97 -0.8,-1.91 -1.32,-2.81l-18.61 13.91 -18.69 -13.9c-0.5,0.93 -0.92,1.89 -1.25,2.88 -0.68,2 -1.03,4.12 -1.07,6.35 0.05,2.68 0.55,5.21 1.56,7.58 1.01,2.37 2.54,4.6 4.63,6.68 0.76,0.73 1.57,1.39 2.41,1.99 0.86,0.61 1.73,1.13 2.61,1.56l-0.01 7.32zm0.02 13.29l20.71 -6.92 -0 7.02 -20.72 6.9 0 -7zm3.51 9.07c4.72,-1.54 9.44,-3.09 14.15,-4.63 0.97,9.9 -10.51,12.17 -14.15,4.63z"/>
   <path class="fil0" d="M103.95 2.49l0 26.46c0,0.31 -0.25,0.57 -0.57,0.57l-5.59 0c-0.31,0 -0.57,-0.25 -0.57,-0.57l0 -11.04 -4.77 11.26c-0.09,0.22 -0.3,0.35 -0.52,0.35l-4.69 0c-0.25,0 -0.47,-0.17 -0.54,-0.4l-4.71 -11.14 0 10.97c0,0.31 -0.25,0.57 -0.57,0.57l-5.56 0c-0.31,0 -0.57,-0.25 -0.57,-0.57l0 -26.46c0,-0.31 0.25,-0.57 0.57,-0.57l5.33 0c0.24,0 0.45,0.15 0.53,0.37l7.9 17.49 7.88 -17.53c0.09,-0.21 0.3,-0.33 0.52,-0.33l5.37 -0c0.31,0 0.57,0.25 0.57,0.57zm14.01 6.01c1.52,0 2.81,0.32 3.87,0.97 0.23,0.14 0.44,0.28 0.63,0.43l0 -0.6c0,-0.31 0.25,-0.57 0.57,-0.57l5.41 0c0.31,0 0.57,0.25 0.57,0.57l0 19.66c0,0.31 -0.25,0.57 -0.57,0.57l-5.41 0c-0.31,0 -0.57,-0.25 -0.57,-0.57l0 -0.81c-0.18,0.16 -0.39,0.32 -0.61,0.48 -0.55,0.39 -1.14,0.69 -1.79,0.88 -0.65,0.19 -1.34,0.29 -2.09,0.29 -0.56,0 -1.13,-0.06 -1.7,-0.17 -0.56,-0.11 -1.12,-0.28 -1.69,-0.5 -0.56,-0.22 -1.1,-0.49 -1.62,-0.81l-0.04 -0.03c-0.5,-0.31 -0.99,-0.67 -1.45,-1.08 -0.49,-0.43 -0.93,-0.93 -1.33,-1.5 -0.39,-0.56 -0.74,-1.2 -1.03,-1.9 -0.3,-0.71 -0.52,-1.45 -0.67,-2.24 -0.15,-0.79 -0.22,-1.62 -0.22,-2.48 0,-3.26 1.01,-5.84 3.03,-7.75 1,-0.94 2.06,-1.65 3.18,-2.12 1.13,-0.48 2.31,-0.72 3.54,-0.72zm3.61 6.84c-0.35,-0.36 -0.75,-0.63 -1.19,-0.82 -0.45,-0.19 -0.96,-0.28 -1.51,-0.28 -0.55,0 -1.06,0.11 -1.54,0.32 -0.48,0.21 -0.93,0.54 -1.34,0.98 -0.41,0.43 -0.72,0.94 -0.93,1.52 -0.21,0.59 -0.32,1.27 -0.32,2.02 0,0.78 0.11,1.48 0.32,2.08 0.21,0.59 0.52,1.1 0.93,1.53 0.42,0.44 0.86,0.76 1.34,0.98 0.47,0.21 0.98,0.32 1.54,0.32 0.55,0 1.06,-0.1 1.51,-0.29 0.45,-0.19 0.85,-0.48 1.21,-0.87 0.36,-0.38 0.62,-0.88 0.81,-1.48 0.19,-0.64 0.29,-1.39 0.29,-2.27 0,-0.88 -0.1,-1.64 -0.29,-2.26 -0.18,-0.6 -0.45,-1.08 -0.8,-1.45l-0.03 -0.03zm23.97 -6.81c0.88,0 1.54,0.06 1.99,0.17 0.26,0.06 0.43,0.3 0.43,0.55l0 5.03c0,0.31 -0.25,0.57 -0.57,0.57 -0.04,0 -0.08,-0 -0.12,-0.01 -0.39,-0.07 -0.98,-0.1 -1.77,-0.1 -0.77,0 -1.48,0.13 -2.13,0.39 -0.64,0.26 -1.23,0.66 -1.77,1.18 -0.54,0.53 -0.96,1.14 -1.27,1.83 -0.31,0.69 -0.5,1.46 -0.59,2.31l0 8.5c0,0.31 -0.25,0.57 -0.57,0.57l-5.37 0c-0.31,0 -0.57,-0.25 -0.57,-0.57l0 -19.66c0,-0.31 0.25,-0.57 0.57,-0.57l5.37 0c0.31,0 0.57,0.25 0.57,0.57l0 2.5c0.26,-0.46 0.56,-0.89 0.9,-1.28 0.58,-0.66 1.28,-1.16 2.11,-1.49 0.81,-0.32 1.74,-0.49 2.78,-0.49zm17.37 5.71l-3.63 0 0 8.39c0,0.49 0.09,0.84 0.27,1.05 0.16,0.18 0.42,0.27 0.79,0.27 0.45,0 0.87,-0.03 1.25,-0.1 0.38,-0.07 0.74,-0.17 1.07,-0.31 0.29,-0.12 0.62,0.02 0.74,0.31 0.03,0.07 0.04,0.14 0.04,0.22l0 4.42c0,0.24 -0.15,0.45 -0.37,0.53 -0.5,0.24 -1.07,0.42 -1.74,0.54 -0.67,0.12 -1.43,0.18 -2.28,0.18 -1.96,0 -3.5,-0.51 -4.62,-1.53 -0.58,-0.53 -1.01,-1.27 -1.3,-2.23 -0.27,-0.91 -0.4,-2.01 -0.4,-3.31l0 -8.43 -1.36 0c-0.31,0 -0.57,-0.25 -0.57,-0.57l0 -4.39c0,-0.31 0.25,-0.57 0.57,-0.57l1.36 0 0 -2.83c0,-0.31 0.25,-0.57 0.57,-0.57l5.41 0c0.31,0 0.57,0.25 0.57,0.57l0 2.83 3.63 0c0.31,0 0.57,0.25 0.57,0.57l0 4.39c0,0.31 -0.25,0.57 -0.57,0.57zm13.22 -5.75c0.57,0 1.16,0.06 1.75,0.17 0.59,0.11 1.17,0.28 1.76,0.51 0.58,0.22 1.15,0.5 1.72,0.82 0.56,0.32 1.1,0.69 1.61,1.1 0.54,0.43 1.02,0.93 1.45,1.5 0.43,0.56 0.8,1.2 1.13,1.9 0.33,0.71 0.57,1.45 0.73,2.24l0 0.02c0.16,0.78 0.24,1.59 0.24,2.44 0,0.76 -0.05,1.45 -0.16,2.06 -0.05,0.28 -0.29,0.47 -0.56,0.47l-13.23 0c0.09,0.18 0.19,0.34 0.3,0.5 0.26,0.36 0.58,0.68 0.96,0.95 0.39,0.28 0.79,0.48 1.2,0.62l0.02 0.01c0.39,0.13 0.8,0.19 1.23,0.19 0.71,0 1.32,-0.09 1.83,-0.27 0.48,-0.17 0.88,-0.42 1.2,-0.76 0.18,-0.19 0.45,-0.23 0.67,-0.12l4.46 2.27c0.28,0.14 0.39,0.48 0.25,0.76 -0.03,0.06 -0.07,0.11 -0.11,0.15 -1.09,1.24 -2.33,2.18 -3.72,2.8 -1.4,0.63 -2.94,0.95 -4.62,0.95 -0.56,0 -1.13,-0.06 -1.72,-0.17 -0.58,-0.11 -1.17,-0.27 -1.76,-0.49 -0.59,-0.22 -1.17,-0.48 -1.74,-0.8 -0.57,-0.31 -1.12,-0.67 -1.66,-1.08 -0.55,-0.42 -1.06,-0.91 -1.51,-1.47 -0.45,-0.56 -0.85,-1.19 -1.19,-1.89 -0.35,-0.7 -0.61,-1.44 -0.78,-2.23 -0.17,-0.79 -0.26,-1.61 -0.26,-2.46 0,-0.85 0.08,-1.68 0.25,-2.46 0.17,-0.78 0.42,-1.53 0.75,-2.24 0.33,-0.7 0.71,-1.34 1.14,-1.9 0.44,-0.57 0.92,-1.07 1.45,-1.49 0.52,-0.42 1.06,-0.78 1.62,-1.1 0.56,-0.32 1.13,-0.59 1.73,-0.82 0.6,-0.23 1.19,-0.4 1.79,-0.51 0.6,-0.11 1.19,-0.17 1.78,-0.17zm0 5.82c-0.43,0 -0.84,0.06 -1.23,0.19 -0.39,0.13 -0.76,0.32 -1.1,0.57 -0.34,0.25 -0.63,0.55 -0.87,0.91 -0.11,0.16 -0.21,0.34 -0.3,0.53l7.05 0c-0.09,-0.19 -0.18,-0.36 -0.29,-0.52 -0.24,-0.35 -0.54,-0.65 -0.9,-0.9 -0.37,-0.26 -0.75,-0.45 -1.14,-0.58 -0.39,-0.13 -0.79,-0.19 -1.22,-0.19zm24.07 -5.82c0.8,0 1.6,0.1 2.4,0.3 0.79,0.19 1.59,0.49 2.38,0.88 0.8,0.4 1.53,0.89 2.19,1.48 0.66,0.59 1.24,1.28 1.74,2.07 0.17,0.26 0.09,0.61 -0.17,0.78 -0.04,0.03 -0.09,0.05 -0.14,0.07l-4.77 1.73c-0.24,0.09 -0.51,-0 -0.65,-0.2 -0.32,-0.45 -0.72,-0.78 -1.2,-1 -0.5,-0.23 -1.09,-0.34 -1.78,-0.34 -0.54,0 -1.03,0.11 -1.49,0.32 -0.47,0.22 -0.9,0.55 -1.3,0.99 -0.4,0.44 -0.7,0.96 -0.9,1.55l-0.01 0.02c-0.2,0.6 -0.3,1.29 -0.3,2.07 0,0.75 0.1,1.41 0.31,2 0.2,0.57 0.5,1.08 0.9,1.51 0.4,0.44 0.84,0.76 1.3,0.98 0.46,0.21 0.96,0.32 1.49,0.32 0.7,0 1.3,-0.11 1.8,-0.34 0.48,-0.22 0.87,-0.54 1.18,-0.97 0.16,-0.22 0.45,-0.3 0.69,-0.19l4.8 1.73c0.29,0.11 0.45,0.43 0.34,0.72 -0.02,0.04 -0.04,0.08 -0.06,0.12 -0.52,0.78 -1.11,1.47 -1.77,2.06 -0.66,0.59 -1.4,1.09 -2.2,1.48 -0.79,0.39 -1.59,0.68 -2.38,0.88 -0.8,0.2 -1.61,0.3 -2.4,0.3 -0.56,0 -1.13,-0.06 -1.72,-0.17 -0.58,-0.11 -1.16,-0.27 -1.75,-0.49 -0.58,-0.22 -1.16,-0.48 -1.72,-0.8 -0.56,-0.31 -1.11,-0.67 -1.64,-1.08 -0.55,-0.42 -1.05,-0.91 -1.49,-1.47 -0.44,-0.56 -0.84,-1.18 -1.18,-1.88 -0.35,-0.7 -0.61,-1.44 -0.78,-2.23 -0.17,-0.79 -0.26,-1.61 -0.26,-2.46 0,-0.87 0.09,-1.7 0.26,-2.5 0.17,-0.8 0.43,-1.55 0.78,-2.27 0.35,-0.71 0.74,-1.35 1.18,-1.91 0.45,-0.57 0.95,-1.06 1.5,-1.48 0.53,-0.41 1.08,-0.77 1.64,-1.08 0.57,-0.32 1.14,-0.58 1.72,-0.8l0.03 -0.01c0.58,-0.21 1.15,-0.37 1.72,-0.48l0.02 -0c0.58,-0.11 1.14,-0.16 1.7,-0.16zm24.71 0.04c2.19,0 4.07,0.76 5.61,2.28 0.78,0.77 1.37,1.73 1.76,2.89 0.38,1.13 0.57,2.45 0.57,3.94l0 11.3c0,0.31 -0.25,0.57 -0.57,0.57l-5.41 0c-0.31,0 -0.57,-0.25 -0.57,-0.57l0 -10.96c0,-1.3 -0.23,-2.26 -0.68,-2.87 -0.41,-0.56 -1.06,-0.84 -1.93,-0.84 -0.88,0 -1.69,0.28 -2.41,0.84 -0.39,0.3 -0.73,0.6 -1,0.89 -0.27,0.28 -0.48,0.55 -0.63,0.81 -0.17,0.3 -0.3,0.55 -0.4,0.76 -0.08,0.17 -0.13,0.33 -0.17,0.45l0 10.9c0,0.31 -0.25,0.57 -0.57,0.57l-5.41 0c-0.31,0 -0.57,-0.25 -0.57,-0.57l0 -26.46c0,-0.31 0.25,-0.57 0.57,-0.57l5.41 0c0.31,0 0.57,0.25 0.57,0.57l0 8.44c0.28,-0.29 0.62,-0.59 1.01,-0.89 0.64,-0.5 1.37,-0.88 2.18,-1.13 0.8,-0.25 1.68,-0.37 2.62,-0.37zm-128.65 56.89l-1.91 -4.24 -9.51 0 -1.93 4.28c-0.09,0.21 -0.3,0.33 -0.52,0.33l-6.09 0c-0.31,0 -0.57,-0.25 -0.57,-0.57 0,-0.1 0.03,-0.2 0.08,-0.28l12.83 -26.42c0.1,-0.2 0.3,-0.32 0.51,-0.32l0.87 -0c0.24,0 0.44,0.15 0.53,0.36l12.84 26.43c0.14,0.28 0.02,0.62 -0.26,0.76 -0.08,0.04 -0.16,0.06 -0.25,0.06l-6.09 0c-0.24,0 -0.45,-0.15 -0.53,-0.37zm-8.83 -9.91l4.29 0 -2.15 -4.75 -2.15 4.75zm35.36 -9.66l-10.23 19.64c-0.1,0.19 -0.3,0.31 -0.5,0.31l-0.87 0c-0.23,0 -0.42,-0.13 -0.51,-0.33l-10.23 -19.64c-0.14,-0.28 -0.04,-0.62 0.24,-0.76 0.08,-0.04 0.17,-0.06 0.26,-0.06l5.71 -0c0.25,0 0.46,0.16 0.54,0.38l4.42 9.68 4.44 -9.72c0.09,-0.21 0.3,-0.33 0.51,-0.33l5.75 -0c0.31,0 0.57,0.25 0.57,0.57 0,0.1 -0.03,0.2 -0.08,0.28zm11.48 -1.08c0.57,0 1.16,0.06 1.75,0.17 0.59,0.11 1.17,0.28 1.76,0.51 0.58,0.22 1.15,0.5 1.71,0.82 0.56,0.32 1.1,0.69 1.61,1.1 0.54,0.43 1.02,0.93 1.45,1.5 0.43,0.56 0.8,1.2 1.13,1.9 0.33,0.71 0.57,1.45 0.73,2.24l0 0.02c0.16,0.78 0.24,1.59 0.24,2.44 0,0.76 -0.05,1.45 -0.16,2.06 -0.05,0.28 -0.29,0.47 -0.56,0.47l-13.23 0c0.09,0.17 0.19,0.34 0.3,0.5 0.26,0.36 0.58,0.68 0.96,0.95 0.39,0.28 0.79,0.48 1.2,0.62l0.02 0.01c0.39,0.13 0.8,0.19 1.23,0.19 0.71,0 1.32,-0.09 1.83,-0.27 0.48,-0.17 0.88,-0.42 1.2,-0.76 0.18,-0.19 0.45,-0.23 0.67,-0.12l4.46 2.27c0.28,0.14 0.39,0.48 0.25,0.76 -0.03,0.06 -0.07,0.11 -0.11,0.15 -1.09,1.24 -2.33,2.18 -3.72,2.8 -1.4,0.63 -2.94,0.95 -4.62,0.95 -0.56,0 -1.13,-0.06 -1.72,-0.17 -0.58,-0.11 -1.17,-0.27 -1.76,-0.49 -0.59,-0.22 -1.17,-0.48 -1.74,-0.8 -0.57,-0.31 -1.12,-0.67 -1.66,-1.08 -0.55,-0.42 -1.06,-0.91 -1.51,-1.47 -0.45,-0.56 -0.85,-1.19 -1.19,-1.89 -0.35,-0.7 -0.61,-1.44 -0.78,-2.23 -0.17,-0.79 -0.26,-1.61 -0.26,-2.46 0,-0.85 0.08,-1.68 0.25,-2.46 0.17,-0.79 0.42,-1.53 0.75,-2.24 0.33,-0.7 0.71,-1.34 1.14,-1.9 0.44,-0.57 0.92,-1.07 1.45,-1.49 0.52,-0.41 1.06,-0.78 1.62,-1.1 0.55,-0.32 1.13,-0.59 1.73,-0.82 0.6,-0.23 1.19,-0.4 1.79,-0.51 0.6,-0.11 1.19,-0.17 1.78,-0.17zm0 5.82c-0.43,0 -0.84,0.06 -1.23,0.19 -0.39,0.13 -0.76,0.32 -1.1,0.57 -0.34,0.25 -0.63,0.55 -0.87,0.91 -0.11,0.16 -0.21,0.34 -0.3,0.53l7.05 0c-0.09,-0.19 -0.18,-0.36 -0.29,-0.52 -0.24,-0.35 -0.54,-0.65 -0.9,-0.9 -0.37,-0.26 -0.75,-0.45 -1.14,-0.58 -0.39,-0.13 -0.79,-0.19 -1.22,-0.19zm26.64 -5.79c2.19,0 4.07,0.76 5.61,2.28 0.78,0.77 1.37,1.73 1.76,2.89 0.38,1.13 0.57,2.45 0.57,3.94l0 11.3c0,0.31 -0.25,0.57 -0.57,0.57l-5.41 0c-0.31,0 -0.57,-0.25 -0.57,-0.57l0 -10.96c0,-1.3 -0.23,-2.26 -0.68,-2.87 -0.41,-0.56 -1.06,-0.84 -1.93,-0.84 -0.88,0 -1.69,0.28 -2.41,0.84 -0.39,0.3 -0.73,0.6 -1,0.89 -0.27,0.28 -0.48,0.55 -0.63,0.82 -0.17,0.3 -0.3,0.55 -0.4,0.76 -0.08,0.17 -0.13,0.33 -0.17,0.45l0 10.9c0,0.31 -0.25,0.57 -0.57,0.57l-5.41 0c-0.31,0 -0.57,-0.25 -0.57,-0.57l0 -19.66c0,-0.31 0.25,-0.57 0.57,-0.57l5.41 0c0.31,0 0.57,0.25 0.57,0.57l0 1.64c0.28,-0.29 0.62,-0.59 1.01,-0.89 0.64,-0.5 1.37,-0.88 2.18,-1.13 0.8,-0.25 1.68,-0.37 2.62,-0.37zm26.71 0.19l5.41 0c0.31,0 0.57,0.25 0.57,0.57l0 19.66c0,0.31 -0.25,0.57 -0.57,0.57l-5.41 0c-0.31,0 -0.57,-0.25 -0.57,-0.57l0 -1.87c-0.32,0.38 -0.7,0.75 -1.15,1.13 -0.62,0.53 -1.32,0.92 -2.08,1.18 -0.76,0.26 -1.59,0.39 -2.48,0.39 -2.29,0 -4.21,-0.75 -5.74,-2.24 -0.78,-0.76 -1.36,-1.72 -1.75,-2.88 -0.37,-1.14 -0.56,-2.46 -0.56,-3.99l0 -11.38c0,-0.31 0.25,-0.57 0.57,-0.57l5.41 0c0.31,0 0.57,0.25 0.57,0.57l0 11.08c0,1.3 0.24,2.24 0.72,2.81 0.23,0.27 0.48,0.48 0.76,0.62l0.02 0.01c0.26,0.12 0.56,0.18 0.88,0.18 1.22,0 2.31,-0.53 3.27,-1.59 0.5,-0.56 0.89,-1.08 1.15,-1.57 0.24,-0.45 0.38,-0.86 0.42,-1.24l0 -10.3c0,-0.31 0.25,-0.57 0.57,-0.57zm20.17 -0.23c0.57,0 1.16,0.06 1.75,0.17 0.59,0.11 1.17,0.28 1.76,0.51 0.58,0.22 1.15,0.5 1.72,0.82 0.56,0.32 1.1,0.69 1.61,1.1 0.54,0.43 1.02,0.93 1.45,1.5 0.43,0.56 0.8,1.2 1.13,1.9 0.33,0.71 0.57,1.45 0.73,2.24l0 0.02c0.16,0.78 0.24,1.59 0.24,2.44 0,0.76 -0.05,1.45 -0.16,2.06 -0.05,0.28 -0.29,0.47 -0.56,0.47l-13.23 0c0.09,0.17 0.19,0.34 0.3,0.5 0.26,0.36 0.58,0.68 0.96,0.95 0.39,0.28 0.79,0.48 1.2,0.62l0.02 0.01c0.39,0.13 0.8,0.19 1.23,0.19 0.71,0 1.32,-0.09 1.83,-0.27 0.48,-0.17 0.88,-0.42 1.2,-0.76 0.18,-0.19 0.45,-0.23 0.67,-0.12l4.46 2.27c0.28,0.14 0.39,0.48 0.25,0.76 -0.03,0.06 -0.07,0.11 -0.11,0.15 -1.09,1.24 -2.33,2.18 -3.72,2.8 -1.4,0.63 -2.94,0.95 -4.62,0.95 -0.56,0 -1.13,-0.06 -1.72,-0.17 -0.58,-0.11 -1.17,-0.27 -1.76,-0.49 -0.59,-0.22 -1.17,-0.48 -1.74,-0.8 -0.57,-0.31 -1.12,-0.67 -1.66,-1.08 -0.55,-0.42 -1.06,-0.91 -1.51,-1.47 -0.45,-0.56 -0.85,-1.19 -1.19,-1.89 -0.35,-0.7 -0.61,-1.44 -0.78,-2.23 -0.17,-0.79 -0.26,-1.61 -0.26,-2.46 0,-0.85 0.08,-1.68 0.25,-2.46 0.17,-0.79 0.42,-1.53 0.75,-2.24 0.33,-0.7 0.71,-1.34 1.14,-1.9 0.44,-0.57 0.92,-1.07 1.45,-1.49 0.52,-0.41 1.06,-0.78 1.62,-1.1 0.56,-0.32 1.13,-0.59 1.73,-0.82 0.6,-0.23 1.19,-0.4 1.79,-0.51 0.6,-0.11 1.19,-0.17 1.78,-0.17zm0 5.82c-0.43,0 -0.84,0.06 -1.23,0.19 -0.39,0.13 -0.76,0.32 -1.1,0.57 -0.34,0.25 -0.63,0.55 -0.87,0.91 -0.11,0.16 -0.21,0.34 -0.3,0.53l7.05 0c-0.09,-0.19 -0.18,-0.36 -0.29,-0.52 -0.24,-0.35 -0.54,-0.65 -0.9,-0.9 -0.37,-0.26 -0.75,-0.45 -1.14,-0.58 -0.39,-0.13 -0.79,-0.19 -1.22,-0.19z"/>
   <circle class="fil0" cx="225.41" cy="62.85" r="3.22"/>
  </g>
 </g>
</svg>
