<?xml version="1.0" encoding="UTF-8"?>
<!DOCTYPE svg PUBLIC "-//W3C//DTD SVG 1.1//EN" "http://www.w3.org/Graphics/SVG/1.1/DTD/svg11.dtd">
<!-- Creator: CorelDRAW -->
<svg xmlns="http://www.w3.org/2000/svg" xml:space="preserve" width="3.41788in" height="1.03594in" version="1.1" style="shape-rendering:geometricPrecision; text-rendering:geometricPrecision; image-rendering:optimizeQuality; fill-rule:evenodd; clip-rule:evenodd"
viewBox="0 0 3338.98 1012.02"
 xmlns:xlink="http://www.w3.org/1999/xlink"
 xmlns:xodm="http://www.corel.com/coreldraw/odm/2003">
 <defs>
  <style type="text/css">
   <![CDATA[
    .fil1 {fill:#FBFBFB;fill-rule:nonzero}
    .fil2 {fill:url(#id0);fill-rule:nonzero}
    .fil0 {fill:url(#id1);fill-rule:nonzero}
   ]]>
  </style>
  <linearGradient id="id0" gradientUnits="userSpaceOnUse" x1="3203.4" y1="865.45" x2="3261.37" y2="937.2">
   <stop offset="0" style="stop-opacity:1; stop-color:#41CEFF"/>
   <stop offset="0.560784" style="stop-opacity:1; stop-color:#8983FF"/>
   <stop offset="1" style="stop-opacity:1; stop-color:#D238FF"/>
  </linearGradient>
  <linearGradient id="id1" gradientUnits="userSpaceOnUse" xlink:href="#id0" x1="71.7" y1="190.43" x2="721.91" y2="821.59">
  </linearGradient>
 </defs>
 <g id="Layer_x0020_1">
  <metadata id="CorelCorpID_0Corel-Layer"/>
  <g id="_1917768786688">
   <path class="fil0" d="M256.09 627.12c-84.44,-31.33 -178.16,-101.11 -226.23,-214.1 -19.42,-45.66 -29.07,-94.31 -29.86,-145.64l0 -1.31c0.72,-42.5 7.33,-82.87 20.26,-120.93 13.04,-38.4 32.53,-74.58 58.91,-108.38l28.69 -36.76 288.6 214.69 287.22 -214.71 28.92 36.87c25.32,32.29 45.78,67.02 59.8,104.99 14.04,38.03 21.6,79.3 21.11,124.54 3.51,158.82 -76.73,271.04 -189.17,350.7 -103.63,73.41 -233.91,117.8 -347.95,145.29 0,0 -0.03,-98.56 -0.03,-98.56 99.31,-25.5 208.06,-64.38 292.99,-124.55 88.48,-62.68 151.61,-149.8 148.74,-271.33l0 -1.68c0.45,-33.06 -5.1,-63.38 -15.48,-91.48 -5.15,-13.96 -11.51,-27.39 -18.92,-40.34l-266.89 199.51 -268 -199.37c-7.18,13.3 -13.16,27.06 -17.98,41.25 -9.76,28.73 -14.78,59.15 -15.38,91.1 0.67,38.36 7.9,74.67 22.37,108.68 14.48,34.05 36.4,66.03 66.44,95.73 10.95,10.41 22.48,19.94 34.62,28.51 12.33,8.7 24.78,16.17 37.36,22.32l-0.11 104.95zm0.3 190.57l297.04 -99.17 -0.02 100.69 -297.09 98.92 0.07 -100.44zm50.34 130.05c67.65,-22.12 135.31,-44.25 202.96,-66.37 13.95,142 -150.76,174.57 -202.96,66.37z"/>
   <path class="fil1" d="M1490.6 35.76l0 379.45c0,4.5 -3.65,8.14 -8.14,8.14l-80.23 0c-4.5,0 -8.14,-3.65 -8.14,-8.14l0 -158.38 -68.41 161.53c-1.3,3.1 -4.31,4.96 -7.47,4.96l-67.21 0.03c-3.64,0 -6.72,-2.39 -7.77,-5.68l-67.57 -159.72 0 157.26c0,4.5 -3.65,8.14 -8.14,8.14l-79.68 0c-4.5,0 -8.14,-3.65 -8.14,-8.14l0 -379.45c0,-4.5 3.65,-8.14 8.14,-8.14l76.43 0c3.5,0 6.48,2.21 7.63,5.3l113.24 250.86 112.95 -251.32c1.34,-3.01 4.31,-4.8 7.41,-4.8l76.97 -0.03c4.5,0 8.14,3.65 8.14,8.14zm200.9 86.18c21.73,0 40.22,4.65 55.46,13.95 3.35,2.05 6.37,4.08 9.04,6.1l0 -8.66c0,-4.5 3.65,-8.14 8.14,-8.14l77.51 0c4.5,0 8.14,3.65 8.14,8.14l0 281.88c0,4.5 -3.65,8.14 -8.14,8.14l-77.51 0c-4.5,0 -8.14,-3.65 -8.14,-8.14l0 -11.67c-2.61,2.23 -5.55,4.52 -8.8,6.86 -7.82,5.62 -16.4,9.82 -25.72,12.6 -9.27,2.76 -19.27,4.15 -29.97,4.15 -8.08,0 -16.19,-0.8 -24.32,-2.4 -8.06,-1.58 -16.12,-3.96 -24.17,-7.12 -8.08,-3.17 -15.84,-7.05 -23.26,-11.62l-0.57 -0.38c-7.22,-4.49 -14.17,-9.65 -20.84,-15.49 -7.02,-6.13 -13.36,-13.3 -19.02,-21.48 -5.61,-8.1 -10.55,-17.19 -14.82,-27.25 -4.29,-10.11 -7.52,-20.85 -9.65,-32.18 -2.14,-11.32 -3.21,-23.16 -3.21,-35.51 0,-46.77 14.5,-83.81 43.5,-111.08 14.33,-13.47 29.53,-23.62 45.58,-30.42 16.18,-6.86 33.12,-10.29 50.78,-10.29zm51.74 98.15c-5.05,-5.17 -10.73,-9.07 -17.05,-11.69 -6.47,-2.69 -13.7,-4.04 -21.68,-4.04 -7.92,0 -15.27,1.52 -22.04,4.55 -6.86,3.07 -13.28,7.77 -19.24,14.05 -5.89,6.2 -10.31,13.47 -13.27,21.77 -3.02,8.49 -4.53,18.17 -4.53,29.01 0,11.24 1.52,21.2 4.53,29.86 2.95,8.46 7.38,15.8 13.27,22 5.96,6.28 12.38,10.97 19.24,14.05 6.77,3.03 14.12,4.55 22.04,4.55 7.95,0 15.17,-1.38 21.62,-4.14 6.43,-2.75 12.24,-6.92 17.43,-12.49 5.09,-5.48 8.95,-12.57 11.57,-21.25 2.75,-9.12 4.12,-19.98 4.12,-32.57 0,-12.64 -1.37,-23.45 -4.09,-32.41 -2.6,-8.55 -6.45,-15.49 -11.54,-20.81l-0.38 -0.43zm343.77 -97.61c12.55,0 22.07,0.81 28.53,2.43 3.69,0.92 6.16,4.24 6.15,7.88l0.02 72.1c0,4.5 -3.65,8.14 -8.14,8.14 -0.62,0 -1.21,-0.07 -1.79,-0.2 -5.65,-0.95 -14.08,-1.43 -25.32,-1.43 -11.07,0 -21.23,1.88 -30.48,5.63 -9.23,3.74 -17.68,9.4 -25.32,16.96 -7.71,7.62 -13.77,16.38 -18.17,26.25 -4.38,9.84 -7.19,20.88 -8.41,33.1l0 121.88c0,4.5 -3.65,8.14 -8.14,8.14l-76.97 0c-4.5,0 -8.14,-3.65 -8.14,-8.14l0 -281.88c0,-4.5 3.65,-8.14 8.14,-8.14l76.97 0c4.5,0 8.14,3.65 8.14,8.14l0 35.8c3.7,-6.66 7.99,-12.79 12.86,-18.37 8.25,-9.46 18.33,-16.57 30.22,-21.3 11.68,-4.65 24.96,-6.98 39.85,-6.98zm249.16 81.88l-52.03 0 0 120.33c0,7.05 1.29,12.07 3.85,15.05 2.24,2.6 6.02,3.91 11.32,3.91 6.51,0 12.5,-0.49 17.95,-1.47 5.46,-0.98 10.57,-2.45 15.28,-4.4 4.14,-1.7 8.89,0.28 10.59,4.42 0.42,1.01 0.61,2.05 0.61,3.08l0.03 63.42c0,3.48 -2.18,6.45 -5.26,7.62 -7.1,3.45 -15.42,6.02 -24.93,7.72 -9.61,1.71 -20.52,2.57 -32.7,2.57 -28.11,0 -50.17,-7.31 -66.18,-21.92 -8.34,-7.61 -14.54,-18.28 -18.58,-31.98 -3.84,-13.03 -5.77,-28.86 -5.77,-47.48l0 -120.87 -19.5 0c-4.5,0 -8.14,-3.65 -8.14,-8.14l0 -62.88c0,-4.5 3.65,-8.14 8.14,-8.14l19.5 0 0 -40.64c0,-4.5 3.65,-8.14 8.14,-8.14l77.51 0c4.5,0 8.14,3.65 8.14,8.14l0 40.64 52.03 0c4.5,0 8.14,3.65 8.14,8.14l0 62.88c0,4.5 -3.65,8.14 -8.14,8.14zm189.53 -82.41c8.23,0 16.59,0.83 25.05,2.47 8.4,1.63 16.83,4.07 25.28,7.29 8.34,3.18 16.54,7.11 24.6,11.75 8.03,4.63 15.74,9.9 23.1,15.77 7.68,6.12 14.62,13.28 20.81,21.46 6.12,8.08 11.52,17.19 16.2,27.31 4.68,10.12 8.19,20.83 10.53,32.1l0.06 0.32c2.3,11.18 3.45,22.84 3.45,34.95 0,10.89 -0.77,20.75 -2.3,29.56 -0.68,3.96 -4.12,6.76 -8.01,6.76l-189.78 0.02c1.27,2.51 2.7,4.88 4.3,7.14 3.67,5.17 8.26,9.72 13.75,13.61 5.58,3.96 11.31,6.92 17.18,8.88l0.35 0.12c5.63,1.83 11.51,2.75 17.61,2.75 10.15,0 18.89,-1.29 26.2,-3.85 6.94,-2.44 12.69,-6.08 17.22,-10.92 2.53,-2.69 6.47,-3.27 9.6,-1.67l63.97 32.51c4,2.03 5.6,6.93 3.56,10.94 -0.42,0.82 -0.95,1.54 -1.58,2.15 -15.67,17.82 -33.44,31.22 -53.28,40.2 -20.05,9.07 -42.13,13.61 -66.22,13.61 -8.02,0 -16.25,-0.8 -24.67,-2.4 -8.33,-1.58 -16.78,-3.94 -25.29,-7.06 -8.51,-3.12 -16.83,-6.93 -24.97,-11.42 -8.12,-4.49 -16.05,-9.65 -23.75,-15.48 -7.93,-5.99 -15.14,-13.04 -21.62,-21.12 -6.42,-8 -12.12,-17.02 -17.08,-27.04 -4.97,-10.05 -8.71,-20.72 -11.21,-32 -2.5,-11.28 -3.75,-23.05 -3.75,-35.29 0,-12.26 1.2,-24.03 3.58,-35.3 2.38,-11.26 5.98,-21.98 10.77,-32.13 4.76,-10.08 10.23,-19.18 16.41,-27.28 6.25,-8.18 13.2,-15.32 20.85,-21.42 7.46,-5.95 15.2,-11.23 23.17,-15.8 7.97,-4.57 16.25,-8.48 24.83,-11.72 8.55,-3.23 17.1,-5.67 25.62,-7.29 8.6,-1.64 17.1,-2.47 25.49,-2.47zm0 83.5c-6.22,0 -12.1,0.9 -17.62,2.7 -5.58,1.82 -10.87,4.55 -15.83,8.17 -4.89,3.57 -9.05,7.92 -12.46,13.01 -1.56,2.33 -2.97,4.85 -4.23,7.53l101.03 0c-1.22,-2.67 -2.63,-5.17 -4.2,-7.5 -3.43,-5.03 -7.71,-9.34 -12.84,-12.91 -5.34,-3.72 -10.81,-6.49 -16.41,-8.3 -5.56,-1.8 -11.37,-2.7 -17.44,-2.7zm345.11 -83.5c11.43,0 22.93,1.42 34.47,4.25 11.37,2.79 22.75,7 34.15,12.6 11.53,5.67 22.01,12.76 31.42,21.26 9.42,8.5 17.74,18.37 24.98,29.61 2.42,3.77 1.32,8.8 -2.45,11.23 -0.64,0.41 -1.32,0.72 -2.02,0.93l-68.45 24.8c-3.5,1.27 -7.32,-0.03 -9.38,-2.92 -4.57,-6.4 -10.33,-11.22 -17.25,-14.41 -7.11,-3.28 -15.6,-4.93 -25.46,-4.93 -7.68,0 -14.82,1.53 -21.4,4.59 -6.67,3.1 -12.9,7.82 -18.67,14.15 -5.74,6.3 -10.07,13.73 -12.95,22.28l-0.12 0.34c-2.87,8.65 -4.31,18.54 -4.31,29.65 0,10.7 1.47,20.25 4.4,28.64 2.87,8.22 7.2,15.46 12.95,21.7 5.77,6.25 12,10.93 18.67,13.98 6.56,3.01 13.72,4.52 21.43,4.52 10.06,0 18.67,-1.61 25.8,-4.82 6.87,-3.1 12.51,-7.75 16.88,-13.93 2.27,-3.22 6.45,-4.3 9.92,-2.76l68.85 24.74c4.21,1.51 6.4,6.15 4.9,10.37 -0.22,0.63 -0.52,1.21 -0.87,1.74 -7.4,11.21 -15.85,21.06 -25.35,29.55 -9.49,8.48 -20.01,15.57 -31.52,21.23 -11.4,5.6 -22.78,9.8 -34.15,12.6 -11.54,2.83 -23.03,4.26 -34.46,4.26 -8.04,0 -16.26,-0.8 -24.63,-2.4 -8.27,-1.58 -16.62,-3.93 -25.06,-7.06 -8.36,-3.09 -16.6,-6.91 -24.72,-11.45 -8.05,-4.5 -15.88,-9.66 -23.48,-15.48 -7.87,-6.02 -15.02,-13.07 -21.43,-21.11 -6.35,-7.97 -12.01,-16.98 -16.98,-27.01 -4.97,-10.05 -8.71,-20.72 -11.21,-32 -2.5,-11.28 -3.75,-23.05 -3.75,-35.29 0,-12.48 1.24,-24.42 3.72,-35.8 2.48,-11.41 6.22,-22.26 11.2,-32.51 4.97,-10.22 10.63,-19.38 16.98,-27.45 6.42,-8.15 13.57,-15.25 21.46,-21.28 7.6,-5.82 15.43,-10.98 23.48,-15.48 8.12,-4.54 16.36,-8.36 24.69,-11.45l0.41 -0.14c8.31,-3.05 16.54,-5.37 24.68,-6.92l0.3 -0.05c8.28,-1.56 16.4,-2.35 24.33,-2.35zm354.32 0.54c31.47,0 58.31,10.91 80.5,32.71 11.22,11.02 19.62,24.84 25.18,41.43 5.45,16.24 8.17,35.08 8.17,56.51l0 162.08c0,4.5 -3.65,8.14 -8.14,8.14l-77.51 0c-4.5,0 -8.14,-3.65 -8.14,-8.14l0 -157.2c0,-18.65 -3.26,-32.35 -9.76,-41.1 -5.95,-8 -15.16,-12.01 -27.63,-12.01 -12.63,0 -24.17,4.04 -34.61,12.1 -5.61,4.34 -10.42,8.61 -14.39,12.79 -3.81,4.01 -6.82,7.91 -9.02,11.69 -2.46,4.25 -4.37,7.87 -5.72,10.89 -1.12,2.5 -1.92,4.67 -2.38,6.51l0 156.33c0,4.5 -3.65,8.14 -8.14,8.14l-77.52 0c-4.5,0 -8.14,-3.65 -8.14,-8.14l0 -379.45c0,-4.5 3.65,-8.14 8.14,-8.14l77.52 0c4.5,0 8.14,3.65 8.14,8.14l0 121.05c4.07,-4.18 8.91,-8.46 14.52,-12.81 9.23,-7.19 19.68,-12.59 31.33,-16.19 11.49,-3.55 24.03,-5.33 37.62,-5.33zm-1844.76 815.86l-27.42 -60.83 -136.41 0 -27.65 61.33c-1.35,3 -4.31,4.78 -7.41,4.79l-87.27 0.02c-4.5,0 -8.14,-3.65 -8.14,-8.14 0,-1.48 0.4,-2.87 1.09,-4.07l184.04 -378.92c1.4,-2.9 4.3,-4.59 7.32,-4.59l12.47 -0.02c3.43,0 6.36,2.12 7.56,5.12l184.06 378.94c1.95,4.04 0.25,8.9 -3.78,10.85 -1.14,0.55 -2.35,0.81 -3.53,0.81l-87.27 0.02c-3.5,0 -6.48,-2.21 -7.63,-5.31zm-126.67 -142.16l61.54 0 -30.77 -68.08 -30.77 68.08zm507.08 -138.51l-146.75 281.58c-1.45,2.78 -4.28,4.38 -7.22,4.38l-12.47 0c-3.25,0 -6.07,-1.91 -7.37,-4.67l-146.75 -281.59c-2.07,-3.98 -0.52,-8.9 3.47,-10.97 1.2,-0.62 2.49,-0.92 3.75,-0.92l81.85 -0c3.55,0 6.57,2.28 7.68,5.45l63.33 138.74 63.63 -139.41c1.36,-2.98 4.3,-4.74 7.38,-4.74l82.4 -0.03c4.5,0 8.14,3.65 8.14,8.14 0,1.47 -0.39,2.86 -1.08,4.05zm164.58 -15.44c8.23,0 16.59,0.83 25.05,2.47 8.4,1.63 16.83,4.07 25.28,7.29 8.34,3.18 16.54,7.11 24.6,11.75 8.03,4.63 15.74,9.9 23.1,15.77 7.68,6.12 14.62,13.28 20.81,21.46 6.12,8.08 11.52,17.19 16.2,27.31 4.68,10.12 8.19,20.83 10.53,32.1l0.06 0.32c2.3,11.19 3.45,22.84 3.45,34.95 0,10.89 -0.77,20.75 -2.3,29.56 -0.68,3.96 -4.12,6.76 -8.01,6.76l-189.78 0.02c1.27,2.51 2.7,4.88 4.3,7.14 3.67,5.17 8.26,9.72 13.75,13.61 5.58,3.96 11.31,6.92 17.18,8.88l0.35 0.12c5.63,1.83 11.5,2.75 17.61,2.75 10.15,0 18.88,-1.29 26.19,-3.85 6.95,-2.44 12.69,-6.08 17.22,-10.92 2.53,-2.69 6.47,-3.27 9.6,-1.67l63.97 32.51c4,2.03 5.6,6.93 3.56,10.94 -0.42,0.82 -0.95,1.54 -1.58,2.15 -15.67,17.81 -33.44,31.22 -53.28,40.2 -20.05,9.07 -42.13,13.61 -66.22,13.61 -8.02,0 -16.25,-0.8 -24.67,-2.4 -8.34,-1.58 -16.78,-3.94 -25.29,-7.06 -8.51,-3.12 -16.83,-6.93 -24.97,-11.42 -8.12,-4.49 -16.05,-9.65 -23.75,-15.48 -7.93,-5.99 -15.14,-13.04 -21.62,-21.12 -6.42,-8 -12.12,-17.02 -17.08,-27.04 -4.98,-10.04 -8.72,-20.72 -11.21,-32 -2.5,-11.28 -3.75,-23.05 -3.75,-35.29 0,-12.26 1.2,-24.03 3.58,-35.3 2.38,-11.26 5.98,-21.98 10.77,-32.13 4.75,-10.08 10.23,-19.18 16.41,-27.28 6.24,-8.18 13.2,-15.33 20.85,-21.43 7.46,-5.95 15.19,-11.23 23.17,-15.8 7.97,-4.57 16.25,-8.48 24.83,-11.72 8.55,-3.23 17.1,-5.67 25.62,-7.29 8.6,-1.64 17.1,-2.47 25.49,-2.47zm0 83.5c-6.22,0 -12.1,0.9 -17.62,2.7 -5.58,1.82 -10.87,4.55 -15.83,8.17 -4.89,3.57 -9.05,7.91 -12.46,13.01 -1.56,2.33 -2.97,4.85 -4.23,7.53l101.03 0c-1.22,-2.67 -2.63,-5.17 -4.2,-7.5 -3.43,-5.03 -7.71,-9.34 -12.84,-12.91 -5.34,-3.72 -10.81,-6.49 -16.41,-8.3 -5.55,-1.8 -11.37,-2.7 -17.44,-2.7zm381.97 -82.96c31.47,0 58.31,10.91 80.5,32.71 11.22,11.02 19.62,24.84 25.18,41.43 5.45,16.24 8.17,35.09 8.17,56.51l0 162.08c0,4.5 -3.65,8.14 -8.14,8.14l-77.51 0c-4.5,0 -8.14,-3.65 -8.14,-8.14l0 -157.2c0,-18.65 -3.26,-32.35 -9.76,-41.1 -5.95,-8 -15.16,-12.01 -27.63,-12.01 -12.63,0 -24.17,4.04 -34.61,12.1 -5.61,4.34 -10.42,8.61 -14.39,12.79 -3.81,4.01 -6.82,7.91 -9.02,11.69 -2.46,4.25 -4.37,7.87 -5.72,10.89 -1.12,2.5 -1.92,4.67 -2.38,6.51l0 156.33c0,4.5 -3.65,8.14 -8.14,8.14l-77.52 0c-4.5,0 -8.14,-3.65 -8.14,-8.14l0 -281.88c0,-4.5 3.65,-8.14 8.14,-8.14l77.52 0c4.5,0 8.14,3.65 8.14,8.14l0 23.48c4.07,-4.18 8.91,-8.45 14.52,-12.81 9.23,-7.19 19.68,-12.59 31.33,-16.19 11.49,-3.55 24.03,-5.33 37.62,-5.33zm383.05 2.71l77.51 0c4.5,0 8.14,3.65 8.14,8.14l0 281.88c0,4.5 -3.65,8.14 -8.14,8.14l-77.51 0c-4.5,0 -8.14,-3.65 -8.14,-8.14l0 -26.75c-4.58,5.39 -10.07,10.78 -16.43,16.15 -8.92,7.53 -18.88,13.18 -29.88,16.95 -10.89,3.73 -22.74,5.6 -35.53,5.6 -32.9,0 -60.36,-10.72 -82.36,-32.14 -11.17,-10.88 -19.53,-24.67 -25.04,-41.36 -5.38,-16.28 -8.07,-35.34 -8.07,-57.15l0 -163.16c0,-4.5 3.65,-8.14 8.14,-8.14l77.52 0c4.5,0 8.14,3.65 8.14,8.14l0 158.83c0,18.67 3.43,32.12 10.28,40.35 3.28,3.94 6.94,6.89 10.95,8.85l0.35 0.18c3.78,1.76 7.97,2.65 12.55,2.65 17.5,0 33.12,-7.59 46.84,-22.77 7.21,-7.98 12.73,-15.49 16.54,-22.53 3.48,-6.42 5.48,-12.37 5.99,-17.8l0 -147.75c0,-4.5 3.65,-8.14 8.14,-8.14zm289.27 -3.25c8.23,0 16.59,0.83 25.05,2.47 8.4,1.63 16.83,4.07 25.28,7.29 8.34,3.18 16.54,7.11 24.6,11.75 8.03,4.63 15.74,9.9 23.1,15.77 7.68,6.12 14.62,13.28 20.81,21.46 6.12,8.08 11.52,17.19 16.2,27.31 4.68,10.12 8.19,20.83 10.53,32.1l0.06 0.32c2.3,11.19 3.45,22.84 3.45,34.95 0,10.89 -0.77,20.75 -2.3,29.56 -0.68,3.96 -4.12,6.76 -8.01,6.76l-189.78 0.02c1.27,2.51 2.7,4.88 4.3,7.14 3.67,5.17 8.26,9.72 13.75,13.61 5.58,3.96 11.31,6.92 17.18,8.88l0.35 0.12c5.63,1.83 11.51,2.75 17.61,2.75 10.15,0 18.89,-1.29 26.2,-3.85 6.94,-2.44 12.69,-6.08 17.22,-10.92 2.53,-2.69 6.47,-3.27 9.6,-1.67l63.97 32.51c4,2.03 5.6,6.93 3.56,10.94 -0.42,0.82 -0.95,1.54 -1.58,2.15 -15.67,17.82 -33.44,31.22 -53.28,40.2 -20.05,9.07 -42.13,13.61 -66.22,13.61 -8.02,0 -16.25,-0.8 -24.67,-2.4 -8.34,-1.58 -16.78,-3.94 -25.29,-7.06 -8.51,-3.12 -16.83,-6.93 -24.97,-11.42 -8.12,-4.49 -16.05,-9.65 -23.75,-15.48 -7.93,-5.99 -15.14,-13.04 -21.62,-21.12 -6.42,-8 -12.12,-17.02 -17.08,-27.04 -4.97,-10.04 -8.71,-20.72 -11.21,-32 -2.5,-11.28 -3.75,-23.05 -3.75,-35.29 0,-12.26 1.2,-24.03 3.58,-35.3 2.38,-11.26 5.98,-21.98 10.77,-32.13 4.76,-10.08 10.23,-19.18 16.41,-27.28 6.25,-8.18 13.2,-15.33 20.85,-21.43 7.46,-5.95 15.19,-11.23 23.17,-15.8 7.97,-4.57 16.25,-8.48 24.83,-11.72 8.55,-3.23 17.1,-5.67 25.62,-7.29 8.6,-1.64 17.1,-2.47 25.49,-2.47zm0 83.5c-6.22,0 -12.1,0.9 -17.62,2.7 -5.58,1.82 -10.87,4.55 -15.83,8.17 -4.89,3.57 -9.05,7.91 -12.46,13.01 -1.56,2.33 -2.97,4.85 -4.23,7.53l101.03 0c-1.22,-2.67 -2.63,-5.17 -4.2,-7.5 -3.43,-5.03 -7.71,-9.34 -12.84,-12.91 -5.34,-3.72 -10.81,-6.49 -16.41,-8.3 -5.56,-1.8 -11.37,-2.7 -17.44,-2.7z"/>
   <circle class="fil2" cx="3232.39" cy="901.32" r="46.12"/>
  </g>
 </g>
</svg>
