<svg width="24" height="24" viewBox="0 0 24 24" fill="none" xmlns="http://www.w3.org/2000/svg">
<g clip-path="url(#clip0_315_611)">
<path fill-rule="evenodd" clip-rule="evenodd" d="M23 23.0001H1V1.37314L3.602 2.89614C3.744 2.97914 3.916 2.98714 4.066 2.91714L8.042 1.05514L11.819 2.91414C11.955 2.98014 12.113 2.98114 12.251 2.91814L16.265 1.05514L20.003 2.91314C20.155 2.98914 20.337 2.98114 20.482 2.89414L23 1.38314V23.0001ZM0.5 24.0001H23.5C23.776 24.0001 24 23.7761 24 23.5001V0.500143C24 0.320143 23.903 0.154143 23.746 0.0651429C23.59 -0.0238571 23.397 -0.0208571 23.243 0.0711429L20.203 1.89614L16.495 0.0521429C16.357 -0.0148571 16.199 -0.0168571 16.062 0.0461429L12.046 1.91114L8.268 0.0511429C8.132 -0.0158571 7.973 -0.0168571 7.835 0.0471429L3.88 1.90014L0.753 0.0681429C0.599 -0.0208571 0.407 -0.0218571 0.251 0.0661429C0.096 0.155143 0 0.321143 0 0.500143V23.5001C0 23.7761 0.224 24.0001 0.5 24.0001ZM4.5 20.0002H19.5C19.776 20.0002 20 19.7762 20 19.5002C20 19.2242 19.776 19.0002 19.5 19.0002H4.5C4.224 19.0002 4 19.2242 4 19.5002C4 19.7762 4.224 20.0002 4.5 20.0002ZM19.5 16.0002H4.5C4.224 16.0002 4 15.7762 4 15.5002C4 15.2242 4.224 15.0002 4.5 15.0002H19.5C19.776 15.0002 20 15.2242 20 15.5002C20 15.7762 19.776 16.0002 19.5 16.0002ZM10.7622 11.8542C10.8602 11.9512 10.9882 12.0002 11.1162 12.0002C11.2442 12.0002 11.3722 11.9512 11.4702 11.8542L16.4772 6.85418C16.6732 6.65918 16.6732 6.34218 16.4772 6.14618C16.2822 5.95118 15.9662 5.95218 15.7702 6.14618L11.1162 10.7932L9.47923 9.16018C9.28423 8.96518 8.96823 8.96418 8.77223 9.16118C8.57723 9.35618 8.57723 9.67218 8.77223 9.86818L10.7622 11.8542Z" fill="black"/>
</g>
<defs>
<clipPath id="clip0_315_611">
<rect width="24" height="24" fill="white"/>
</clipPath>
</defs>
</svg>
