<svg width="24" height="24" viewBox="0 0 24 24" fill="none" xmlns="http://www.w3.org/2000/svg">
<path fill-rule="evenodd" clip-rule="evenodd" d="M23 15.95C21.03 15.7 19.5 14.04 19.5 12C19.5 9.96 21.03 8.3 23 8.05V5H1V8.05C2.97 8.3 4.5 9.96 4.5 12C4.5 14.04 2.97 15.7 1 15.95V19H23V15.95ZM23.5 9C23.33 9 23.16 9.02 23 9.05C21.58 9.29 20.5 10.52 20.5 12C20.5 13.48 21.58 14.71 23 14.95C23.16 14.98 23.33 15 23.5 15C23.67 15 23.84 14.98 24 14.95V19.5C24 19.78 23.78 20 23.5 20H0.5C0.22 20 0 19.78 0 19.5V14.95C0.16 14.98 0.33 15 0.5 15C0.67 15 0.84 14.98 1 14.95C2.42 14.71 3.5 13.48 3.5 12C3.5 10.52 2.42 9.29 1 9.05C0.84 9.02 0.67 9 0.5 9C0.33 9 0.16 9.02 0 9.05V4.5C0 4.22 0.22 4 0.5 4H23.5C23.78 4 24 4.22 24 4.5V9.05C23.84 9.02 23.67 9 23.5 9ZM6 14.5C6 14.776 6.224 15 6.5 15C6.776 15 7 14.776 7 14.5V9.5C7 9.224 6.776 9 6.5 9C6.224 9 6 9.224 6 9.5V14.5ZM17.5 15C17.224 15 17 14.776 17 14.5V9.5C17 9.224 17.224 9 17.5 9C17.776 9 18 9.224 18 9.5V14.5C18 14.776 17.776 15 17.5 15ZM12.8975 10.748C12.9155 10.798 12.9645 10.833 13.0205 10.833H15.4805C15.5785 10.833 15.6205 10.951 15.5415 11.006C14.8735 11.471 13.5485 12.392 13.5485 12.392C13.5145 12.416 13.4965 12.453 13.4965 12.492C13.4965 12.505 13.4985 12.518 13.5015 12.53C13.5015 12.53 14.0075 14.02 14.2635 14.772C14.2925 14.861 14.1885 14.934 14.1095 14.879C13.4405 14.414 12.1175 13.493 12.1175 13.493C12.0725 13.461 12.0105 13.461 11.9645 13.493C11.9645 13.493 10.6425 14.414 9.97453 14.879C9.89653 14.934 9.79153 14.861 9.82153 14.772L10.5815 12.53C10.5855 12.518 10.5875 12.505 10.5875 12.492C10.5875 12.453 10.5685 12.416 10.5345 12.392C10.5345 12.392 9.21053 11.471 8.54253 11.006C8.46353 10.951 8.50553 10.833 8.60353 10.833H11.0645C11.1215 10.833 11.1695 10.798 11.1875 10.748C11.1875 10.748 11.6925 9.25902 11.9465 8.50602C11.9765 8.41702 12.1065 8.41702 12.1365 8.50602C12.3925 9.25902 12.8975 10.748 12.8975 10.748Z" fill="black"/>
</svg>
