<?xml version="1.0" encoding="utf-8"?>
<!-- Generator: Adobe Illustrator 26.0.2, SVG Export Plug-In . SVG Version: 6.00 Build 0)  -->
<svg version="1.1" id="Layer_1" xmlns="http://www.w3.org/2000/svg" xmlns:xlink="http://www.w3.org/1999/xlink" x="0px" y="0px"
	 viewBox="0 0 81 81" style="enable-background:new 0 0 81 81;" xml:space="preserve">
<style type="text/css">
	.st0{fill:none;stroke:#000000;stroke-width:1.2;stroke-linecap:round;stroke-linejoin:round;stroke-miterlimit:10;}
	.st1{fill:none;stroke:#000000;stroke-width:1.2;stroke-miterlimit:10;}
	.st2{fill:none;stroke:#000000;stroke-width:1.2;stroke-linecap:round;stroke-linejoin:round;stroke-miterlimit:10.0002;}
	.st3{fill:none;stroke:#000000;stroke-width:1.2001;stroke-linecap:round;stroke-linejoin:round;stroke-miterlimit:10.0004;}
</style>
<g>
	<g>
		<g>
			<polyline class="st2" points="29.56,13.82 29.99,10.44 44.58,12.31 			"/>
			<polyline class="st2" points="51.5,13.2 66.23,15.09 59.17,70.16 43.93,68.21 			"/>
		</g>
	</g>
	<g>
		<g>
			
				<rect x="17.46" y="13.34" transform="matrix(0.995 -0.1003 0.1003 0.995 -3.9424 3.7909)" class="st3" width="36.53" height="55.52"/>
		</g>
		<path d="M40.04,35.02c-3.11-2.58-5.09-4.17-5.09-4.17s-1.65,1.93-4.23,5.04c-1.36,1.64-4.39,5.68-4.05,9.38
			c0.23,2.47,2.42,4.28,4.88,4.05c1.62-0.15,2.95-1.15,3.62-2.51l0,0c0.07-0.1,0.19-0.19,0.34-0.21c0.23-0.02,0.45,0.12,0.45,0.32
			c-0.05,1.35-0.49,4.7-3.34,6.08l8.72-0.81c-3.06-0.83-4.11-4.04-4.41-5.36c-0.04-0.2,0.15-0.38,0.38-0.4
			c0.14-0.01,0.28,0.05,0.37,0.14l0,0c0.9,1.22,2.4,1.95,4.01,1.8c2.47-0.23,4.28-2.42,4.05-4.88
			C45.4,39.78,41.68,36.38,40.04,35.02z M37.9,41.31l1.56,3.61l-3.39-2.01l-2.96,2.6l0.86-3.84l-3.39-2.01l3.92-0.37l0.86-3.84
			l1.56,3.62l3.92-0.37L37.9,41.31z"/>
		<g>
			<path d="M50.33,61.34l1.33-0.13l0.16-0.77l1.04-0.1l-1.07,4.17l-0.91,0.09l-1.89-3.87l1.04-0.11L50.33,61.34z M51.5,61.98
				l-0.86,0.09l0.57,1.35L51.5,61.98z"/>
		</g>
		<g>
			<path d="M21.11,20.87L19.78,21l-0.16,0.77l-1.04,0.1l1.07-4.17l0.91-0.09l1.89,3.87l-1.04,0.1L21.11,20.87z M19.93,20.23
				l0.86-0.09l-0.57-1.35L19.93,20.23z"/>
		</g>
	</g>
</g>
</svg>
